<svg width="1024" height="1024" version="1.1" xmlns="http://www.w3.org/2000/svg"><path fill="rgb(254,116,0)" stroke="rgb(254,116,0)" stroke-width="1" opacity="0.9372549019607843" d="M 843.5 413 L 851.5 413 L 852 414.5 L 852 416.5 L 852 442.5 L 853 445.5 L 852 449 L 854.5 448 L 855.5 449 L 884 449 L 884 458.5 L 883.5 459 L 852 459 L 852 475.5 L 853 477.5 L 852 480.5 L 853 487.5 L 852 488.5 L 852 498.5 L 853 503.5 L 852 506.5 L 853 511.5 L 852 513.5 Q 854.2 514.7 853 519.5 L 853 521.5 L 853 536.5 L 857.5 544 L 860.5 546 L 868.5 547 Q 877.8 545.3 883.5 540 L 887 547.5 L 871.5 558 L 863.5 560 L 853.5 560 L 845.5 558 L 837 552.5 L 833 545.5 L 831 537.5 L 831 459 L 816.5 459 L 814 460 L 814 451.5 L 815.5 450 Q 829.1 448.6 835 439.5 L 840 429.5 L 842 422.5 L 842 414.5 L 843.5 413 Z "></path><path fill="rgb(254,116,0)" stroke="rgb(254,116,0)" stroke-width="1" opacity="0.9372549019607843" d="M 68.5 446 L 75 446 L 75 464.5 L 79.5 461 Q 87.3 452.3 99.5 448 L 108.5 446 L 117.5 446 L 125.5 448 L 135 454.5 L 141.5 467 L 158.5 452 L 170.5 447 L 182.5 446 L 192.5 448 L 202 454.5 L 207 462.5 L 209 470.5 L 209 526.5 L 210 527.5 L 209 532.5 L 210 533.5 L 210 544.5 L 212 548 L 223 551 Q 224.5 556.4 221.5 558 L 174.5 558 L 174 557.5 L 174 551 Q 181.7 551 186 546.5 L 188 540.5 L 188 478.5 L 186 469.5 L 180.5 463 Q 175.4 459.6 165.5 461 Q 154.4 464.4 148 472.5 L 143 482.5 L 143 521.5 L 143 523.5 L 143 541.5 L 144 545.5 L 147.5 549 L 157 551.5 L 157 555.5 L 156.5 558 L 108.5 558 L 107 556.5 L 108 553.5 Q 106.9 550.2 109.5 551 L 119 546.5 L 121 541.5 L 121 477.5 L 118 467.5 L 112.5 462 Q 107 459.5 97.5 461 L 83 469 L 78 475.5 L 76 481.5 L 76 540.5 L 78 547 L 90 551 L 90 557.5 L 89.5 558 L 40 558 L 40 551.5 L 41.5 550 Q 50.4 550.4 53 544.5 L 54 540.5 L 54 464.5 L 49.5 458 L 40 457 Q 38.5 451.6 41.5 450 L 67.5 447 L 68.5 446 Z "></path><path fill="rgb(254,116,0)" stroke="rgb(254,116,0)" stroke-width="1" opacity="0.9372549019607843" d="M 284.5 446 Q 318.4 445.6 332 465.5 Q 339 474.5 342 487.5 Q 340.8 492.3 343 493.5 L 343 512.5 L 339 527.5 Q 334.8 537.8 327.5 545 Q 319 554 305.5 558 L 296.5 560 L 281.5 560 L 266.5 556 L 251 545.5 Q 235.5 531 236 500.5 L 237 499.5 L 237 490.5 L 241 477.5 Q 245.9 466.4 254.5 459 L 268.5 450 L 284.5 446 Z M 287 456 L 276 460 Q 269 465 265 474 L 262 483 L 261 497 L 260 498 L 261 520 L 264 532 L 268 540 Q 273 547 284 550 Q 299 552 306 545 L 314 534 L 319 514 L 319 495 L 318 494 L 317 483 L 308 465 L 297 457 L 287 456 Z "></path><path fill="rgb(254,116,0)" stroke="rgb(254,116,0)" stroke-width="1" opacity="0.9372549019607843" d="M 386.5 446 L 394 446 L 394 451.5 L 394 453.5 L 394.5 465 Q 403.9 453.9 418.5 448 L 428.5 446 L 437.5 446 Q 450 448 456 456.5 L 461.5 467 L 479.5 451 Q 488 445.5 502.5 446 L 505.5 447 Q 517.6 448.4 523 456.5 L 526 461.5 L 529 472.5 L 529 541.5 L 533.5 549 L 540.5 550 L 543 552.5 Q 544 557 541.5 558 L 494.5 558 L 494 557.5 L 494 551 L 502.5 549 L 506 545.5 L 508 536.5 L 508 534.5 Q 509.5 529 507 527.5 Q 509.5 526 508 520.5 L 508 516.5 L 508 484.5 L 507 483.5 L 507 474.5 Q 505.4 465.6 498.5 462 Q 493.4 459.6 484.5 461 Q 472.6 465.1 466 474.5 L 463 480.5 L 462 487.5 L 463 490.5 Q 460.5 492 462 497.5 L 462 499.5 L 463 504.5 L 462 505.5 L 462 535.5 Q 464.8 537.3 463 543.5 L 467.5 549 L 476 551 L 476 557.5 L 475.5 558 L 426.5 558 L 427 556.5 L 426 551 Q 434.6 550.9 439 545.5 L 441 536.5 L 440 534.5 L 441 530.5 L 440 528.5 L 441 524.5 L 440 523.5 L 440 512.5 L 441 510.5 L 440 507.5 L 441 503.5 L 440 501.5 L 440 499.5 L 440 474.5 Q 437.9 466.1 431.5 462 L 429.5 461 L 416.5 461 Q 406.1 464.1 400 471.5 L 395 480.5 L 395 542.5 L 398.5 548 L 409 551 L 409 557.5 L 408.5 558 L 358 558 L 358 551 L 360.5 551 L 368.5 548 L 371 545.5 L 373 538.5 L 373 493.5 L 373 491.5 L 373 468.5 L 371 460 Q 367.8 457 360.5 457 Q 359.3 459.3 358 456.5 Q 356.8 451.3 359.5 450 L 379.5 448 L 386.5 446 Z "></path><path fill="rgb(254,116,0)" stroke="rgb(254,116,0)" stroke-width="1" opacity="0.9372549019607843" d="M 606.5 446 Q 635.5 445.5 647 462.5 L 654 477.5 L 655 488.5 L 656 489.5 L 656 498.5 L 654.5 500 L 582 500 L 584 519.5 Q 587.1 530.9 594.5 538 L 606.5 545 L 616.5 546 Q 618.3 543.3 624.5 545 L 634.5 541 L 647 530.5 L 648.5 528 L 655 532.5 Q 650.5 543.5 641.5 550 Q 633.7 556.3 622.5 559 L 617.5 560 L 601.5 560 L 585.5 555 L 572 544.5 Q 564.5 536.5 561 524.5 L 559 515.5 L 559 493.5 Q 562.7 471.2 576.5 459 L 592.5 449 L 606.5 446 Z M 608 456 L 596 461 Q 585 470 583 488 L 583 490 L 633 490 L 634 488 L 632 475 L 628 466 Q 623 456 608 456 Z "></path><path fill="rgb(254,116,0)" stroke="rgb(254,116,0)" stroke-width="1" opacity="0.9372549019607843" d="M 705.5 446 L 712 446 L 712 464.5 L 713 464.5 Q 712.3 462.3 714.5 463 Q 727 446 756.5 446 L 766.5 448 L 778 455.5 L 781 459.5 L 785 472.5 L 785 540.5 L 787 546.5 L 789.5 549 L 797.5 550 L 799 551.5 Q 799.8 557.8 798.5 558 L 749 558 L 750 551 Q 757.8 550.6 762 545.5 L 763 543.5 L 763 529.5 L 764 528.5 L 763 527.5 L 763 512.5 L 764 509.5 L 763 506.5 L 764 504.5 L 763 503.5 L 763 489.5 L 763 487.5 Q 765.6 467.9 754.5 462 L 742.5 459 L 733.5 461 L 719 470 L 714 478.5 L 713 487.5 L 714 489.5 L 713 490.5 L 713 539.5 L 714 544.5 L 717.5 549 L 727 551 L 727 557.5 L 726.5 558 L 677 558 L 677 551.5 L 678.5 551 L 683.5 550 L 690 545.5 L 691 542.5 L 691 464.5 L 687.5 459 L 677 457 Q 675.5 451.6 678.5 450 L 691.5 449 L 705.5 446 Z "></path><path fill="rgb(254,116,0)" stroke="rgb(254,116,0)" stroke-width="1" opacity="0.9372549019607843" d="M 946.5 446 Q 977.5 445.5 991 462.5 Q 1007.2 478.3 1005 512.5 L 1001 527.5 L 988.5 546 Q 979.1 555.1 964.5 559 L 942.5 560 L 923.5 554 L 910 542.5 L 903 531.5 L 898 515.5 L 898 493.5 Q 901.4 472.4 914.5 461 L 928.5 451 L 946.5 446 Z M 949 456 L 937 461 Q 929 466 926 476 L 922 493 L 922 515 Q 925 516 923 522 L 926 533 L 932 543 Q 938 549 949 551 Q 960 551 967 546 L 976 534 L 979 526 L 981 515 L 981 495 L 980 494 L 979 483 L 970 465 Q 964 456 949 456 Z "></path><path fill="rgb(254,116,0)" stroke="rgb(254,116,0)" stroke-width="1" opacity="0.9372549019607843" d="M 597.5 488 L 604 488.5 L 597.5 489 L 597.5 488 Z "></path><path fill="rgb(254,116,0)" stroke="rgb(254,116,0)" stroke-width="1" opacity="0.9372549019607843" d="M 605.5 488 L 608 488.5 L 605.5 489 L 605.5 488 Z "></path><path fill="rgb(254,116,0)" stroke="rgb(254,116,0)" stroke-width="1" opacity="0.9372549019607843" d="M 609.5 488 L 613 488.5 L 609.5 489 L 609.5 488 Z "></path><path fill="rgb(254,116,0)" stroke="rgb(254,116,0)" stroke-width="1" opacity="0.9372549019607843" d="M 616.5 488 L 619 488.5 L 616.5 489 L 616.5 488 Z "></path><path fill="rgb(254,116,0)" stroke="rgb(254,116,0)" stroke-width="1" opacity="0.9372549019607843" d="M 625.5 488 L 628 488.5 L 625.5 489 L 625.5 488 Z "></path><path fill="rgb(0,0,0)" stroke="rgb(0,0,0)" stroke-width="1" opacity="0" d="M 0 0 L 1024 0 L 1024 1024 L 0 1024 L 0 0 Z M 844 413 L 842 415 L 842 423 L 840 430 L 835 440 Q 829 449 816 450 L 814 452 L 814 460 L 817 459 L 831 459 L 831 538 L 833 546 L 837 553 L 846 558 L 854 560 L 864 560 L 872 558 L 887 548 L 884 540 Q 878 545 869 547 L 861 546 L 858 544 L 853 537 L 853 522 L 853 520 Q 854 515 852 514 L 853 512 L 852 507 L 853 504 L 852 499 L 852 489 L 853 488 L 852 481 L 853 478 L 852 476 L 852 459 L 884 459 L 884 459 L 884 449 L 856 449 L 855 448 L 852 449 L 853 446 L 852 443 L 852 417 L 852 415 L 852 413 L 844 413 Z M 69 446 L 68 447 L 42 450 Q 38 452 40 457 L 50 458 L 54 465 L 54 541 L 53 545 Q 50 550 42 550 L 40 552 L 40 558 L 90 558 L 90 558 L 90 551 L 78 547 L 76 541 L 76 482 L 78 476 L 83 469 L 98 461 Q 107 460 113 462 L 118 468 L 121 478 L 121 542 L 119 547 L 110 551 Q 107 550 108 554 L 107 557 L 109 558 L 157 558 L 157 556 L 157 552 L 148 549 L 144 546 L 143 542 L 143 524 L 143 522 L 143 483 L 148 473 Q 154 464 166 461 Q 175 460 181 463 L 186 470 L 188 479 L 188 541 L 186 547 Q 182 551 174 551 L 174 558 L 175 558 L 222 558 Q 224 556 223 551 L 212 548 L 210 545 L 210 534 L 209 533 L 210 528 L 209 527 L 209 471 L 207 463 L 202 455 L 193 448 L 183 446 L 171 447 L 159 452 L 142 467 L 135 455 L 126 448 L 118 446 L 109 446 L 100 448 Q 87 452 80 461 L 75 465 L 75 446 L 69 446 Z M 285 446 L 269 450 L 255 459 Q 246 466 241 478 L 237 491 L 237 500 L 236 501 Q 235 531 251 546 L 267 556 L 282 560 L 297 560 L 306 558 Q 319 554 328 545 Q 335 538 339 528 L 343 513 L 343 494 Q 341 492 342 488 Q 339 475 332 466 Q 318 446 285 446 Z M 387 446 L 380 448 L 360 450 Q 357 451 358 457 Q 359 459 361 457 Q 368 457 371 460 L 373 469 L 373 492 L 373 494 L 373 539 L 371 546 L 369 548 L 361 551 L 358 551 L 358 558 L 409 558 L 409 558 L 409 551 L 399 548 L 395 543 L 395 481 L 400 472 Q 406 464 417 461 L 430 461 L 432 462 Q 438 466 440 475 L 440 500 L 440 502 L 441 504 L 440 508 L 441 511 L 440 513 L 440 524 L 441 525 L 440 529 L 441 531 L 440 535 L 441 537 L 439 546 Q 435 551 426 551 L 427 557 L 427 558 L 476 558 L 476 558 L 476 551 L 468 549 L 463 544 Q 465 537 462 536 L 462 506 L 463 505 L 462 500 L 462 498 Q 461 492 463 491 L 462 488 L 463 481 L 466 475 Q 473 465 485 461 Q 493 460 499 462 Q 505 466 507 475 L 507 484 L 508 485 L 508 517 L 508 521 Q 510 526 507 528 Q 510 529 508 535 L 508 537 L 506 546 L 503 549 L 494 551 L 494 558 L 495 558 L 542 558 Q 544 557 543 553 L 541 550 L 534 549 L 529 542 L 529 473 L 526 462 L 523 457 Q 518 448 506 447 L 503 446 Q 488 446 480 451 L 462 467 L 456 457 Q 450 448 438 446 L 429 446 L 419 448 Q 404 454 395 465 L 394 454 L 394 452 L 394 446 L 387 446 Z M 607 446 L 593 449 L 577 459 Q 563 471 559 494 L 559 516 L 561 525 Q 565 536 572 545 L 586 555 L 602 560 L 618 560 L 623 559 Q 634 556 642 550 Q 650 543 655 533 L 649 528 L 647 531 L 635 541 L 625 545 Q 618 543 617 546 L 607 545 L 595 538 Q 587 531 584 520 L 582 500 L 655 500 L 656 499 L 656 490 L 655 489 L 654 478 L 647 463 Q 636 445 607 446 Z M 706 446 L 692 449 L 679 450 Q 676 452 677 457 L 688 459 L 691 465 L 691 543 L 690 546 L 684 550 L 679 551 L 677 552 L 677 558 L 727 558 L 727 558 L 727 551 L 718 549 L 714 545 L 713 540 L 713 491 L 714 490 L 713 488 L 714 479 L 719 470 L 734 461 L 743 459 L 755 462 Q 766 468 763 488 L 763 490 L 763 504 L 764 505 L 763 507 L 764 510 L 763 513 L 763 528 L 764 529 L 763 530 L 763 544 L 762 546 Q 758 551 750 551 L 749 558 L 799 558 Q 800 558 799 552 L 798 550 L 790 549 L 787 547 L 785 541 L 785 473 L 781 460 L 778 456 L 767 448 L 757 446 Q 727 446 715 463 Q 712 462 713 465 L 712 465 L 712 446 L 706 446 Z M 947 446 L 929 451 L 915 461 Q 901 472 898 494 L 898 516 L 903 532 L 910 543 L 924 554 L 943 560 L 965 559 Q 979 555 989 546 L 1001 528 L 1005 513 Q 1007 478 991 463 Q 978 445 947 446 Z "></path><path fill="rgb(0,0,0)" stroke="rgb(0,0,0)" stroke-width="1" opacity="0" d="M 286.5 456 L 296.5 457 L 308 464.5 L 317 482.5 L 318 493.5 L 319 494.5 L 319 513.5 L 314 533.5 L 305.5 545 Q 299 552 283.5 550 Q 273.3 547.3 268 539.5 L 264 531.5 L 261 519.5 L 260 497.5 L 261 496.5 L 262 482.5 L 265 473.5 Q 268.6 465.1 275.5 460 L 286.5 456 Z "></path><path fill="rgb(0,0,0)" stroke="rgb(0,0,0)" stroke-width="1" opacity="0" d="M 607.5 456 Q 622.6 455.9 628 465.5 L 632 474.5 L 634 487.5 L 633 490 L 583 489.5 L 583 487.5 Q 584.9 469.9 595.5 461 L 607.5 456 Z M 598 488 L 598 489 L 604 489 L 598 488 Z M 606 488 L 606 489 L 608 489 L 606 488 Z M 610 488 L 610 489 L 613 489 L 610 488 Z M 617 488 L 617 489 L 619 489 L 617 488 Z M 626 488 L 626 489 L 628 489 L 626 488 Z "></path><path fill="rgb(0,0,0)" stroke="rgb(0,0,0)" stroke-width="1" opacity="0" d="M 948.5 456 Q 963.8 455.8 970 464.5 L 979 482.5 L 980 493.5 L 981 494.5 L 981 514.5 L 979 525.5 L 976 533.5 L 966.5 546 Q 959.9 550.9 948.5 551 Q 938 549 932 542.5 L 926 532.5 L 923 521.5 Q 924.5 516 922 514.5 L 922 492.5 L 926 475.5 Q 929.5 466.5 936.5 461 L 948.5 456 Z "></path></svg>