<svg xmlns="http://www.w3.org/2000/svg" viewBox="0 0 1272 644" preserveAspectRatio="xMidYMid" width="1272" height="644" xmlns:xlink="http://www.w3.org/1999/xlink" style="shape-rendering:auto;display:block;background-position-x:0%;background-position-y:0%;background-size:auto;background-origin:padding-box;background-clip:border-box;background:scroll rgb(0, 0, 0) none  repeat;width:1272px;height:644px;;animation:none"><g><defs><linearGradient gradientUnits="objectBoundingBox" y2="1" y1="0" x2="0" x1="0" id="lg"><stop offset="0" stop-color="#ff7a16"></stop>
<stop offset="1" stop-color="#533afc"></stop></linearGradient></defs>
<g transform="matrix(0.984807753012208,-0.17364817766693033,0.17364817766693033,0.984807753012208,0,0)" style="transform:matrix(0.984808, -0.173648, 0.173648, 0.984808, 0, 0);;animation:none"><path stroke-width="0.5" stroke="url(#lg)" fill="none" d="M 390.045 -390.045 C 433.186 -341.496 496.448 -334.039 532.269 -273.372 M 390.045 -390.045 C 433.186 -341.496 496.448 -334.039 532.269 -273.372 C 560.711 -208.916 529.444 -150.837 543.503 -87.5619 M 390.045 -390.045 C 433.186 -341.496 496.448 -334.039 532.269 -273.372 C 560.711 -208.916 529.444 -150.837 543.503 -87.5619 C 550.028 -23.073 610.137 23.6444 603.129 95.1944 M 390.045 -390.045 C 433.186 -341.496 496.448 -334.039 532.269 -273.372 C 560.711 -208.916 529.444 -150.837 543.503 -87.5619 C 550.028 -23.073 610.137 23.6444 603.129 95.1944 C 587.759 165.425 512.169 193.023 485.932 251.885 M 390.045 -390.045 C 433.186 -341.496 496.448 -334.039 532.269 -273.372 C 560.711 -208.916 529.444 -150.837 543.503 -87.5619 C 550.028 -23.073 610.137 23.6444 603.129 95.1944 C 587.759 165.425 512.169 193.023 485.932 251.885 C 452.958 307.254 480.912 380.932 432.804 434.817 M 390.045 -390.045 C 433.186 -341.496 496.448 -334.039 532.269 -273.372 C 560.711 -208.916 529.444 -150.837 543.503 -87.5619 C 550.028 -23.073 610.137 23.6444 603.129 95.1944 C 587.759 165.425 512.169 193.023 485.932 251.885 C 452.958 307.254 480.912 380.932 432.804 434.817 C 378.697 482.673 292.428 441.463 238.513 472.774 M 390.045 -390.045 C 433.186 -341.496 496.448 -334.039 532.269 -273.372 C 560.711 -208.916 529.444 -150.837 543.503 -87.5619 C 550.028 -23.073 610.137 23.6444 603.129 95.1944 C 587.759 165.425 512.169 193.023 485.932 251.885 C 452.958 307.254 480.912 380.932 432.804 434.817 C 378.697 482.673 292.428 441.463 238.513 472.774 C 181.291 497.531 164.767 590.018 94.2754 605.294 M 390.045 -390.045 C 433.186 -341.496 496.448 -334.039 532.269 -273.372 C 560.711 -208.916 529.444 -150.837 543.503 -87.5619 C 550.028 -23.073 610.137 23.6444 603.129 95.1944 C 587.759 165.425 512.169 193.023 485.932 251.885 C 452.958 307.254 480.912 380.932 432.804 434.817 C 378.697 482.673 292.428 441.463 238.513 472.774 C 181.291 497.531 164.767 590.018 94.2754 605.294 C 22.4771 612.18 -23.3395 549.331 -87.7447 542.78 M 390.045 -390.045 C 433.186 -341.496 496.448 -334.039 532.269 -273.372 C 560.711 -208.916 529.444 -150.837 543.503 -87.5619 C 550.028 -23.073 610.137 23.6444 603.129 95.1944 C 587.759 165.425 512.169 193.023 485.932 251.885 C 452.958 307.254 480.912 380.932 432.804 434.817 C 378.697 482.673 292.428 441.463 238.513 472.774 C 181.291 497.531 164.767 590.018 94.2754 605.294 C 22.4771 612.18 -23.3395 549.331 -87.7447 542.78 C -150.934 528.705 -205.748 561.752 -270.348 533.675 M 390.045 -390.045 C 433.186 -341.496 496.448 -334.039 532.269 -273.372 C 560.711 -208.916 529.444 -150.837 543.503 -87.5619 C 550.028 -23.073 610.137 23.6444 603.129 95.1944 C 587.759 165.425 512.169 193.023 485.932 251.885 C 452.958 307.254 480.912 380.932 432.804 434.817 C 378.697 482.673 292.428 441.463 238.513 472.774 C 181.291 497.531 164.767 590.018 94.2754 605.294 C 22.4771 612.18 -23.3395 549.331 -87.7447 542.78 C -150.934 528.705 -205.748 561.752 -270.348 533.675 C -331.201 498.199 -341.496 433.186 -390.045 390.045" style="fill:none;stroke:url('#lg');;animation:none">/&gt;</path></g>
<g transform="matrix(0.9849415246407827,-0.17288780477029164,0.17288780477029164,0.9849415246407827,0,0)" style="transform:matrix(0.984942, -0.172888, 0.172888, 0.984942, 0, 0);;animation:none"><path stroke-width="0.5" stroke="url(#lg)" fill="none" d="M 378.234 -378.234 C 420.069 -331.156 511.107 -339.51 547.469 -277.082 M 378.234 -378.234 C 420.069 -331.156 511.107 -339.51 547.469 -277.082 C 576.242 -210.813 514.966 -144.244 528.35 -82.7166 M 378.234 -378.234 C 420.069 -331.156 511.107 -339.51 547.469 -277.082 C 576.242 -210.813 514.966 -144.244 528.35 -82.7166 C 534.41 -20.0423 617.18 22.1649 610.296 94.5529 M 378.234 -378.234 C 420.069 -331.156 511.107 -339.51 547.469 -277.082 C 576.242 -210.813 514.966 -144.244 528.35 -82.7166 C 534.41 -20.0423 617.18 22.1649 610.296 94.5529 C 594.953 165.63 502.676 184.446 477.512 242.251 M 378.234 -378.234 C 420.069 -331.156 511.107 -339.51 547.469 -277.082 C 576.242 -210.813 514.966 -144.244 528.35 -82.7166 C 534.41 -20.0423 617.18 22.1649 610.296 94.5529 C 594.953 165.63 502.676 184.446 477.512 242.251 C 445.729 296.697 482.783 385.381 434.14 439.455 M 378.234 -378.234 C 420.069 -331.156 511.107 -339.51 547.469 -277.082 C 576.242 -210.813 514.966 -144.244 528.35 -82.7166 C 534.41 -20.0423 617.18 22.1649 610.296 94.5529 C 594.953 165.63 502.676 184.446 477.512 242.251 C 445.729 296.697 482.783 385.381 434.14 439.455 C 379.479 487.437 304.106 457.726 248.198 490.297 M 378.234 -378.234 C 420.069 -331.156 511.107 -339.51 547.469 -277.082 C 576.242 -210.813 514.966 -144.244 528.35 -82.7166 C 534.41 -20.0423 617.18 22.1649 610.296 94.5529 C 594.953 165.63 502.676 184.446 477.512 242.251 C 445.729 296.697 482.783 385.381 434.14 439.455 C 379.479 487.437 304.106 457.726 248.198 490.297 C 188.849 516.071 173.296 600.833 101.474 617.037 M 378.234 -378.234 C 420.069 -331.156 511.107 -339.51 547.469 -277.082 C 576.242 -210.813 514.966 -144.244 528.35 -82.7166 C 534.41 -20.0423 617.18 22.1649 610.296 94.5529 C 594.953 165.63 502.676 184.446 477.512 242.251 C 445.729 296.697 482.783 385.381 434.14 439.455 C 379.479 487.437 304.106 457.726 248.198 490.297 C 188.849 516.071 173.296 600.833 101.474 617.037 C 28.2459 624.687 -23.4507 561.271 -89.2586 554.624 M 378.234 -378.234 C 420.069 -331.156 511.107 -339.51 547.469 -277.082 C 576.242 -210.813 514.966 -144.244 528.35 -82.7166 C 534.41 -20.0423 617.18 22.1649 610.296 94.5529 C 594.953 165.63 502.676 184.446 477.512 242.251 C 445.729 296.697 482.783 385.381 434.14 439.455 C 379.479 487.437 304.106 457.726 248.198 490.297 C 188.849 516.071 173.296 600.833 101.474 617.037 C 28.2459 624.687 -23.4507 561.271 -89.2586 554.624 C -153.829 540.289 -210.437 579.124 -277.048 550.375 M 378.234 -378.234 C 420.069 -331.156 511.107 -339.51 547.469 -277.082 C 576.242 -210.813 514.966 -144.244 528.35 -82.7166 C 534.41 -20.0423 617.18 22.1649 610.296 94.5529 C 594.953 165.63 502.676 184.446 477.512 242.251 C 445.729 296.697 482.783 385.381 434.14 439.455 C 379.479 487.437 304.106 457.726 248.198 490.297 C 188.849 516.071 173.296 600.833 101.474 617.037 C 28.2459 624.687 -23.4507 561.271 -89.2586 554.624 C -153.829 540.289 -210.437 579.124 -277.048 550.375 C -339.817 513.997 -331.156 420.069 -378.234 378.234" style="fill:none;stroke:url('#lg');;animation:none">/&gt;</path></g>
<g transform="matrix(0.9853592673387152,-0.17049080406200914,0.17049080406200914,0.9853592673387152,0,0)" style="transform:matrix(0.985359, -0.170491, 0.170491, 0.985359, 0, 0);;animation:none"><path stroke-width="0.5" stroke="url(#lg)" fill="none" d="M 385.638 -385.638 C 428.292 -337.638 518.481 -344.64 555.395 -281.31 M 385.638 -385.638 C 428.292 -337.638 518.481 -344.64 555.395 -281.31 C 584.61 -214.08 547.433 -151.412 561.435 -86.0191 M 385.638 -385.638 C 428.292 -337.638 518.481 -344.64 555.395 -281.31 C 584.61 -214.08 547.433 -151.412 561.435 -86.0191 C 567.654 -19.4332 626.956 25.0876 619.662 98.6045 M 385.638 -385.638 C 428.292 -337.638 518.481 -344.64 555.395 -281.31 C 584.61 -214.08 547.433 -151.412 561.435 -86.0191 C 567.654 -19.4332 626.956 25.0876 619.662 98.6045 C 603.777 170.754 519.473 188.059 493.768 247.813 M 385.638 -385.638 C 428.292 -337.638 518.481 -344.64 555.395 -281.31 C 584.61 -214.08 547.433 -151.412 561.435 -86.0191 C 567.654 -19.4332 626.956 25.0876 619.662 98.6045 C 603.777 170.754 519.473 188.059 493.768 247.813 C 461.218 304.131 473.119 375.958 425.651 428.961 M 385.638 -385.638 C 428.292 -337.638 518.481 -344.64 555.395 -281.31 C 584.61 -214.08 547.433 -151.412 561.435 -86.0191 C 567.654 -19.4332 626.956 25.0876 619.662 98.6045 C 603.777 170.754 519.473 188.059 493.768 247.813 C 461.218 304.131 473.119 375.958 425.651 428.961 C 372.281 476.018 305.133 462.532 248.653 495.19 M 385.638 -385.638 C 428.292 -337.638 518.481 -344.64 555.395 -281.31 C 584.61 -214.08 547.433 -151.412 561.435 -86.0191 C 567.654 -19.4332 626.956 25.0876 619.662 98.6045 C 603.777 170.754 519.473 188.059 493.768 247.813 C 461.218 304.131 473.119 375.958 425.651 428.961 C 372.281 476.018 305.133 462.532 248.653 495.19 C 188.726 520.984 172.443 613.171 99.1773 629.189 M 385.638 -385.638 C 428.292 -337.638 518.481 -344.64 555.395 -281.31 C 584.61 -214.08 547.433 -151.412 561.435 -86.0191 C 567.654 -19.4332 626.956 25.0876 619.662 98.6045 C 603.777 170.754 519.473 188.059 493.768 247.813 C 461.218 304.131 473.119 375.958 425.651 428.961 C 372.281 476.018 305.133 462.532 248.653 495.19 C 188.726 520.984 172.443 613.171 99.1773 629.189 C 24.5366 636.485 -24.5544 566.049 -90.9161 559.239 M 385.638 -385.638 C 428.292 -337.638 518.481 -344.64 555.395 -281.31 C 584.61 -214.08 547.433 -151.412 561.435 -86.0191 C 567.654 -19.4332 626.956 25.0876 619.662 98.6045 C 603.777 170.754 519.473 188.059 493.768 247.813 C 461.218 304.131 473.119 375.958 425.651 428.961 C 372.281 476.018 305.133 462.532 248.653 495.19 C 188.726 520.984 172.443 613.171 99.1773 629.189 C 24.5366 636.485 -24.5544 566.049 -90.9161 559.239 C -156.017 544.677 -211.45 570.023 -276.984 541.219 M 385.638 -385.638 C 428.292 -337.638 518.481 -344.64 555.395 -281.31 C 584.61 -214.08 547.433 -151.412 561.435 -86.0191 C 567.654 -19.4332 626.956 25.0876 619.662 98.6045 C 603.777 170.754 519.473 188.059 493.768 247.813 C 461.218 304.131 473.119 375.958 425.651 428.961 C 372.281 476.018 305.133 462.532 248.653 495.19 C 188.726 520.984 172.443 613.171 99.1773 629.189 C 24.5366 636.485 -24.5544 566.049 -90.9161 559.239 C -156.017 544.677 -211.45 570.023 -276.984 541.219 C -338.677 504.911 -337.638 428.292 -385.638 385.638" style="fill:none;stroke:url('#lg');;animation:none">/&gt;</path></g>
<g transform="matrix(0.9860811167630326,-0.16626494267695296,0.16626494267695296,0.9860811167630326,0,0)" style="transform:matrix(0.986081, -0.166265, 0.166265, 0.986081, 0, 0);;animation:none"><path stroke-width="0.5" stroke="url(#lg)" fill="none" d="M 401.815 -401.815 C 446.258 -351.801 528.035 -348.247 565.307 -283.77 M 401.815 -401.815 C 446.258 -351.801 528.035 -348.247 565.307 -283.77 C 594.742 -215.358 525.089 -144.546 538.439 -81.8268 M 401.815 -401.815 C 446.258 -351.801 528.035 -348.247 565.307 -283.77 C 594.742 -215.358 525.089 -144.546 538.439 -81.8268 C 544.325 -17.9729 637.527 28.5864 629.748 103.322 M 401.815 -401.815 C 446.258 -351.801 528.035 -348.247 565.307 -283.77 C 594.742 -215.358 525.089 -144.546 538.439 -81.8268 C 544.325 -17.9729 637.527 28.5864 629.748 103.322 C 613.239 176.624 527.003 193.123 500.651 253.727 M 401.815 -401.815 C 446.258 -351.801 528.035 -348.247 565.307 -283.77 C 594.742 -215.358 525.089 -144.546 538.439 -81.8268 C 544.325 -17.9729 637.527 28.5864 629.748 103.322 C 613.239 176.624 527.003 193.123 500.651 253.727 C 467.359 310.814 482.725 378.317 434.913 432.433 M 401.815 -401.815 C 446.258 -351.801 528.035 -348.247 565.307 -283.77 C 594.742 -215.358 525.089 -144.546 538.439 -81.8268 C 544.325 -17.9729 637.527 28.5864 629.748 103.322 C 613.239 176.624 527.003 193.123 500.651 253.727 C 467.359 310.814 482.725 378.317 434.913 432.433 C 381.071 480.554 314.395 467.986 257.21 501.696 M 401.815 -401.815 C 446.258 -351.801 528.035 -348.247 565.307 -283.77 C 594.742 -215.358 525.089 -144.546 538.439 -81.8268 C 544.325 -17.9729 637.527 28.5864 629.748 103.322 C 613.239 176.624 527.003 193.123 500.651 253.727 C 467.359 310.814 482.725 378.317 434.913 432.433 C 381.071 480.554 314.395 467.986 257.21 501.696 C 196.459 528.45 175.097 608 102.42 624.366 M 401.815 -401.815 C 446.258 -351.801 528.035 -348.247 565.307 -283.77 C 594.742 -215.358 525.089 -144.546 538.439 -81.8268 C 544.325 -17.9729 637.527 28.5864 629.748 103.322 C 613.239 176.624 527.003 193.123 500.651 253.727 C 467.359 310.814 482.725 378.317 434.913 432.433 C 381.071 480.554 314.395 467.986 257.21 501.696 C 196.459 528.45 175.097 608 102.42 624.366 C 28.3238 632.076 -23.4801 543.446 -87.1926 536.919 M 401.815 -401.815 C 446.258 -351.801 528.035 -348.247 565.307 -283.77 C 594.742 -215.358 525.089 -144.546 538.439 -81.8268 C 544.325 -17.9729 637.527 28.5864 629.748 103.322 C 613.239 176.624 527.003 193.123 500.651 253.727 C 467.359 310.814 482.725 378.317 434.913 432.433 C 381.071 480.554 314.395 467.986 257.21 501.696 C 196.459 528.45 175.097 608 102.42 624.366 C 28.3238 632.076 -23.4801 543.446 -87.1926 536.919 C -149.696 522.949 -223.223 594.487 -291.551 564.129 M 401.815 -401.815 C 446.258 -351.801 528.035 -348.247 565.307 -283.77 C 594.742 -215.358 525.089 -144.546 538.439 -81.8268 C 544.325 -17.9729 637.527 28.5864 629.748 103.322 C 613.239 176.624 527.003 193.123 500.651 253.727 C 467.359 310.814 482.725 378.317 434.913 432.433 C 381.071 480.554 314.395 467.986 257.21 501.696 C 196.459 528.45 175.097 608 102.42 624.366 C 28.3238 632.076 -23.4801 543.446 -87.1926 536.919 C -149.696 522.949 -223.223 594.487 -291.551 564.129 C -355.836 525.951 -351.801 446.258 -401.815 401.815" style="fill:none;stroke:url('#lg');;animation:none">/&gt;</path></g>
<g transform="matrix(0.9871181472567011,-0.15999301033638244,0.15999301033638244,0.9871181472567011,0,0)" style="transform:matrix(0.987118, -0.159993, 0.159993, 0.987118, 0, 0);;animation:none"><path stroke-width="0.5" stroke="url(#lg)" fill="none" d="M 405.621 -405.621 C 450.485 -355.133 513.452 -346.82 550.658 -284.066 M 405.621 -405.621 C 450.485 -355.133 513.452 -346.82 550.658 -284.066 C 580.229 -217.374 528.646 -150.106 542.624 -86.9301 M 405.621 -405.621 C 450.485 -355.133 513.452 -346.82 550.658 -284.066 C 580.229 -217.374 528.646 -150.106 542.624 -86.9301 C 549.081 -22.5489 629.318 26.8007 621.806 100.583 M 405.621 -405.621 C 450.485 -355.133 513.452 -346.82 550.658 -284.066 C 580.229 -217.374 528.646 -150.106 542.624 -86.9301 C 549.081 -22.5489 629.318 26.8007 621.806 100.583 C 605.674 172.972 520.259 194.854 493.75 254.654 M 405.621 -405.621 C 450.485 -355.133 513.452 -346.82 550.658 -284.066 C 580.229 -217.374 528.646 -150.106 542.624 -86.9301 C 549.081 -22.5489 629.318 26.8007 621.806 100.583 C 605.674 172.972 520.259 194.854 493.75 254.654 C 460.397 310.923 500.709 394.141 450.912 450.261 M 405.621 -405.621 C 450.485 -355.133 513.452 -346.82 550.658 -284.066 C 580.229 -217.374 528.646 -150.106 542.624 -86.9301 C 549.081 -22.5489 629.318 26.8007 621.806 100.583 C 605.674 172.972 520.259 194.854 493.75 254.654 C 460.397 310.923 500.709 394.141 450.912 450.261 C 394.864 500.139 305.547 456.106 249.819 488.858 M 405.621 -405.621 C 450.485 -355.133 513.452 -346.82 550.658 -284.066 C 580.229 -217.374 528.646 -150.106 542.624 -86.9301 C 549.081 -22.5489 629.318 26.8007 621.806 100.583 C 605.674 172.972 520.259 194.854 493.75 254.654 C 460.397 310.923 500.709 394.141 450.912 450.261 C 394.864 500.139 305.547 456.106 249.819 488.858 C 190.629 514.832 170.095 592.608 99.2626 608.493 M 405.621 -405.621 C 450.485 -355.133 513.452 -346.82 550.658 -284.066 C 580.229 -217.374 528.646 -150.106 542.624 -86.9301 C 549.081 -22.5489 629.318 26.8007 621.806 100.583 C 605.674 172.972 520.259 194.854 493.75 254.654 C 460.397 310.923 500.709 394.141 450.912 450.261 C 394.864 500.139 305.547 456.106 249.819 488.858 C 190.629 514.832 170.095 592.608 99.2626 608.493 C 27.0539 615.942 -26.1665 577.182 -93.8256 570.105 M 405.621 -405.621 C 450.485 -355.133 513.452 -346.82 550.658 -284.066 C 580.229 -217.374 528.646 -150.106 542.624 -86.9301 C 549.081 -22.5489 629.318 26.8007 621.806 100.583 C 605.674 172.972 520.259 194.854 493.75 254.654 C 460.397 310.923 500.709 394.141 450.912 450.261 C 394.864 500.139 305.547 456.106 249.819 488.858 C 190.629 514.832 170.095 592.608 99.2626 608.493 C 27.0539 615.942 -26.1665 577.182 -93.8256 570.105 C -160.184 555.126 -211.609 581.55 -278.497 552.647 M 405.621 -405.621 C 450.485 -355.133 513.452 -346.82 550.658 -284.066 C 580.229 -217.374 528.646 -150.106 542.624 -86.9301 C 549.081 -22.5489 629.318 26.8007 621.806 100.583 C 605.674 172.972 520.259 194.854 493.75 254.654 C 460.397 310.923 500.709 394.141 450.912 450.261 C 394.864 500.139 305.547 456.106 249.819 488.858 C 190.629 514.832 170.095 592.608 99.2626 608.493 C 27.0539 615.942 -26.1665 577.182 -93.8256 570.105 C -160.184 555.126 -211.609 581.55 -278.497 552.647 C -341.523 516.082 -355.133 450.485 -405.621 405.621" style="fill:none;stroke:url('#lg');;animation:none">/&gt;</path></g>
<g transform="matrix(0.9884672095180631,-0.15143505442127195,0.15143505442127195,0.9884672095180631,0,0)" style="transform:matrix(0.988467, -0.151435, 0.151435, 0.988467, 0, 0);;animation:none"><path stroke-width="0.5" stroke="url(#lg)" fill="none" d="M 398.857 -398.857 C 442.972 -349.211 516.451 -348.67 553.852 -285.551 M 398.857 -398.857 C 442.972 -349.211 516.451 -348.67 553.852 -285.551 C 583.576 -218.473 547.571 -155.917 562.102 -90.4766 M 398.857 -398.857 C 442.972 -349.211 516.451 -348.67 553.852 -285.551 C 583.576 -218.473 547.571 -155.917 562.102 -90.4766 C 568.84 -23.7815 649.637 26.7912 641.985 102.962 M 398.857 -398.857 C 442.972 -349.211 516.451 -348.67 553.852 -285.551 C 583.576 -218.473 547.571 -155.917 562.102 -90.4766 C 568.84 -23.7815 649.637 26.7912 641.985 102.962 C 625.433 177.706 537.92 196.211 511.129 258.077 M 398.857 -398.857 C 442.972 -349.211 516.451 -348.67 553.852 -285.551 C 583.576 -218.473 547.571 -155.917 562.102 -90.4766 C 568.84 -23.7815 649.637 26.7912 641.985 102.962 C 625.433 177.706 537.92 196.211 511.129 258.077 C 477.253 316.365 493.515 389.934 444.262 445.238 M 398.857 -398.857 C 442.972 -349.211 516.451 -348.67 553.852 -285.551 C 583.576 -218.473 547.571 -155.917 562.102 -90.4766 C 568.84 -23.7815 649.637 26.7912 641.985 102.962 C 625.433 177.706 537.92 196.211 511.129 258.077 C 477.253 316.365 493.515 389.934 444.262 445.238 C 388.85 494.369 307.67 458.026 251.702 491.013 M 398.857 -398.857 C 442.972 -349.211 516.451 -348.67 553.852 -285.551 C 583.576 -218.473 547.571 -155.917 562.102 -90.4766 C 568.84 -23.7815 649.637 26.7912 641.985 102.962 C 625.433 177.706 537.92 196.211 511.129 258.077 C 477.253 316.365 493.515 389.934 444.262 445.238 C 388.85 494.369 307.67 458.026 251.702 491.013 C 192.245 517.194 171.256 600.163 99.527 616.132 M 398.857 -398.857 C 442.972 -349.211 516.451 -348.67 553.852 -285.551 C 583.576 -218.473 547.571 -155.917 562.102 -90.4766 C 568.84 -23.7815 649.637 26.7912 641.985 102.962 C 625.433 177.706 537.92 196.211 511.129 258.077 C 477.253 316.365 493.515 389.934 444.262 445.238 C 388.85 494.369 307.67 458.026 251.702 491.013 C 192.245 517.194 171.256 600.163 99.527 616.132 C 26.4185 623.56 -25.6876 567.126 -92.1681 560.176 M 398.857 -398.857 C 442.972 -349.211 516.451 -348.67 553.852 -285.551 C 583.576 -218.473 547.571 -155.917 562.102 -90.4766 C 568.84 -23.7815 649.637 26.7912 641.985 102.962 C 625.433 177.706 537.92 196.211 511.129 258.077 C 477.253 316.365 493.515 389.934 444.262 445.238 C 388.85 494.369 307.67 458.026 251.702 491.013 C 192.245 517.194 171.256 600.163 99.527 616.132 C 26.4185 623.56 -25.6876 567.126 -92.1681 560.176 C -157.371 545.46 -219.319 602.17 -288.577 572.217 M 398.857 -398.857 C 442.972 -349.211 516.451 -348.67 553.852 -285.551 C 583.576 -218.473 547.571 -155.917 562.102 -90.4766 C 568.84 -23.7815 649.637 26.7912 641.985 102.962 C 625.433 177.706 537.92 196.211 511.129 258.077 C 477.253 316.365 493.515 389.934 444.262 445.238 C 388.85 494.369 307.67 458.026 251.702 491.013 C 192.245 517.194 171.256 600.163 99.527 616.132 C 26.4185 623.56 -25.6876 567.126 -92.1681 560.176 C -157.371 545.46 -219.319 602.17 -288.577 572.217 C -353.833 534.332 -349.211 442.972 -398.857 398.857" style="fill:none;stroke:url('#lg');;animation:none">/&gt;</path></g>
<g transform="matrix(0.9901037932570892,-0.14033701784605215,0.14033701784605215,0.9901037932570892,0,0)" style="transform:matrix(0.990104, -0.140337, 0.140337, 0.990104, 0, 0);;animation:none"><path stroke-width="0.5" stroke="url(#lg)" fill="none" d="M 405.36 -405.36 C 450.195 -354.905 538.089 -358.287 576.472 -292.558 M 405.36 -405.36 C 450.195 -354.905 538.089 -358.287 576.472 -292.558 C 606.862 -222.773 545.547 -156.815 560.197 -91.6064 M 405.36 -405.36 C 450.195 -354.905 538.089 -358.287 576.472 -292.558 C 606.862 -222.773 545.547 -156.815 560.197 -91.6064 C 567.081 -25.1274 655.204 26.2643 647.576 103.093 M 405.36 -405.36 C 450.195 -354.905 538.089 -358.287 576.472 -292.558 C 606.862 -222.773 545.547 -156.815 560.197 -91.6064 C 567.081 -25.1274 655.204 26.2643 647.576 103.093 C 630.97 178.493 528.495 192.346 502.224 253.131 M 405.36 -405.36 C 450.195 -354.905 538.089 -358.287 576.472 -292.558 C 606.862 -222.773 545.547 -156.815 560.197 -91.6064 C 567.081 -25.1274 655.204 26.2643 647.576 103.093 C 630.97 178.493 528.495 192.346 502.224 253.131 C 468.991 310.406 507.345 397.014 457.164 453.895 M 405.36 -405.36 C 450.195 -354.905 538.089 -358.287 576.472 -292.558 C 606.862 -222.773 545.547 -156.815 560.197 -91.6064 C 567.081 -25.1274 655.204 26.2643 647.576 103.093 C 630.97 178.493 528.495 192.346 502.224 253.131 C 468.991 310.406 507.345 397.014 457.164 453.895 C 400.646 504.482 307.029 461.69 250.635 494.577 M 405.36 -405.36 C 450.195 -354.905 538.089 -358.287 576.472 -292.558 C 606.862 -222.773 545.547 -156.815 560.197 -91.6064 C 567.081 -25.1274 655.204 26.2643 647.576 103.093 C 630.97 178.493 528.495 192.346 502.224 253.131 C 468.991 310.406 507.345 397.014 457.164 453.895 C 400.646 504.482 307.029 461.69 250.635 494.577 C 190.766 520.608 177.616 619.76 103.54 636.341 M 405.36 -405.36 C 450.195 -354.905 538.089 -358.287 576.472 -292.558 C 606.862 -222.773 545.547 -156.815 560.197 -91.6064 C 567.081 -25.1274 655.204 26.2643 647.576 103.093 C 630.97 178.493 528.495 192.346 502.224 253.131 C 468.991 310.406 507.345 397.014 457.164 453.895 C 400.646 504.482 307.029 461.69 250.635 494.577 C 190.766 520.608 177.616 619.76 103.54 636.341 C 28.028 644.1 -24.0531 556.89 -89.3418 550.203 M 405.36 -405.36 C 450.195 -354.905 538.089 -358.287 576.472 -292.558 C 606.862 -222.773 545.547 -156.815 560.197 -91.6064 C 567.081 -25.1274 655.204 26.2643 647.576 103.093 C 630.97 178.493 528.495 192.346 502.224 253.131 C 468.991 310.406 507.345 397.014 457.164 453.895 C 400.646 504.482 307.029 461.69 250.635 494.577 C 190.766 520.608 177.616 619.76 103.54 636.341 C 28.028 644.1 -24.0531 556.89 -89.3418 550.203 C -153.392 535.888 -219.836 594.508 -288.189 564.548 M 405.36 -405.36 C 450.195 -354.905 538.089 -358.287 576.472 -292.558 C 606.862 -222.773 545.547 -156.815 560.197 -91.6064 C 567.081 -25.1274 655.204 26.2643 647.576 103.093 C 630.97 178.493 528.495 192.346 502.224 253.131 C 468.991 310.406 507.345 397.014 457.164 453.895 C 400.646 504.482 307.029 461.69 250.635 494.577 C 190.766 520.608 177.616 619.76 103.54 636.341 C 28.028 644.1 -24.0531 556.89 -89.3418 550.203 C -153.392 535.888 -219.836 594.508 -288.189 564.548 C -352.547 526.762 -354.905 450.195 -405.36 405.36" style="fill:none;stroke:url('#lg');;animation:none">/&gt;</path></g>
<g transform="matrix(0.9919729074692349,-0.12645058658239847,0.12645058658239847,0.9919729074692349,0,0)" style="transform:matrix(0.991973, -0.126451, 0.126451, 0.991973, 0, 0);;animation:none"><path stroke-width="0.5" stroke="url(#lg)" fill="none" d="M 400.034 -400.034 C 444.28 -350.242 535.446 -362.788 574.375 -297.338 M 400.034 -400.034 C 444.28 -350.242 535.446 -362.788 574.375 -297.338 C 605.342 -227.767 565.43 -160.423 580.366 -92.8515 M 400.034 -400.034 C 444.28 -350.242 535.446 -362.788 574.375 -297.338 C 605.342 -227.767 565.43 -160.423 580.366 -92.8515 C 587.257 -23.9932 660.912 24.5971 653.44 102.108 M 400.034 -400.034 C 444.28 -350.242 535.446 -362.788 574.375 -297.338 C 605.342 -227.767 565.43 -160.423 580.366 -92.8515 C 587.257 -23.9932 660.912 24.5971 653.44 102.108 C 636.909 178.204 528.522 194.055 502.05 254.831 M 400.034 -400.034 C 444.28 -350.242 535.446 -362.788 574.375 -297.338 C 605.342 -227.767 565.43 -160.423 580.366 -92.8515 C 587.257 -23.9932 660.912 24.5971 653.44 102.108 C 636.909 178.204 528.522 194.055 502.05 254.831 C 468.618 312.074 514.63 402.263 463.782 459.963 M 400.034 -400.034 C 444.28 -350.242 535.446 -362.788 574.375 -297.338 C 605.342 -227.767 565.43 -160.423 580.366 -92.8515 C 587.257 -23.9932 660.912 24.5971 653.44 102.108 C 636.909 178.204 528.522 194.055 502.05 254.831 C 468.618 312.074 514.63 402.263 463.782 459.963 C 406.504 511.287 322.463 479.15 263.91 513.73 M 400.034 -400.034 C 444.28 -350.242 535.446 -362.788 574.375 -297.338 C 605.342 -227.767 565.43 -160.423 580.366 -92.8515 C 587.257 -23.9932 660.912 24.5971 653.44 102.108 C 636.909 178.204 528.522 194.055 502.05 254.831 C 468.618 312.074 514.63 402.263 463.782 459.963 C 406.504 511.287 322.463 479.15 263.91 513.73 C 201.698 541.188 171.71 610.187 98.8003 626.14 M 400.034 -400.034 C 444.28 -350.242 535.446 -362.788 574.375 -297.338 C 605.342 -227.767 565.43 -160.423 580.366 -92.8515 C 587.257 -23.9932 660.912 24.5971 653.44 102.108 C 636.909 178.204 528.522 194.055 502.05 254.831 C 468.618 312.074 514.63 402.263 463.782 459.963 C 406.504 511.287 322.463 479.15 263.91 513.73 C 201.698 541.188 171.71 610.187 98.8003 626.14 C 24.5206 633.413 -20.094 589.599 -89.2547 583.15 M 400.034 -400.034 C 444.28 -350.242 535.446 -362.788 574.375 -297.338 C 605.342 -227.767 565.43 -160.423 580.366 -92.8515 C 587.257 -23.9932 660.912 24.5971 653.44 102.108 C 636.909 178.204 528.522 194.055 502.05 254.831 C 468.618 312.074 514.63 402.263 463.782 459.963 C 406.504 511.287 322.463 479.15 263.91 513.73 C 201.698 541.188 171.71 610.187 98.8003 626.14 C 24.5206 633.413 -20.094 589.599 -89.2547 583.15 C -157.178 568.617 -225.056 608.939 -295.069 578.266 M 400.034 -400.034 C 444.28 -350.242 535.446 -362.788 574.375 -297.338 C 605.342 -227.767 565.43 -160.423 580.366 -92.8515 C 587.257 -23.9932 660.912 24.5971 653.44 102.108 C 636.909 178.204 528.522 194.055 502.05 254.831 C 468.618 312.074 514.63 402.263 463.782 459.963 C 406.504 511.287 322.463 479.15 263.91 513.73 C 201.698 541.188 171.71 610.187 98.8003 626.14 C 24.5206 633.413 -20.094 589.599 -89.2547 583.15 C -157.178 568.617 -225.056 608.939 -295.069 578.266 C -360.991 539.576 -350.242 444.28 -400.034 400.034" style="fill:none;stroke:url('#lg');;animation:none">/&gt;</path></g>
<g transform="matrix(0.9939788616376863,-0.1095719974147101,0.1095719974147101,0.9939788616376863,0,0)" style="transform:matrix(0.993979, -0.109572, 0.109572, 0.993979, 0, 0);;animation:none"><path stroke-width="0.5" stroke="url(#lg)" fill="none" d="M 413.952 -413.952 C 459.738 -362.428 546.696 -360.66 585.298 -293.903 M 413.952 -413.952 C 459.738 -362.428 546.696 -360.66 585.298 -293.903 C 615.785 -223.071 560.324 -159.883 575.232 -92.916 M 413.952 -413.952 C 459.738 -362.428 546.696 -360.66 585.298 -293.903 C 615.785 -223.071 560.324 -159.883 575.232 -92.916 C 582.166 -24.6607 639.138 25.7339 631.683 100.678 M 413.952 -413.952 C 459.738 -362.428 546.696 -360.66 585.298 -293.903 C 615.785 -223.071 560.324 -159.883 575.232 -92.916 C 582.166 -24.6607 639.138 25.7339 631.683 100.678 C 615.471 174.227 558.695 206.495 530.551 270.731 M 413.952 -413.952 C 459.738 -362.428 546.696 -360.66 585.298 -293.903 C 615.785 -223.071 560.324 -159.883 575.232 -92.916 C 582.166 -24.6607 639.138 25.7339 631.683 100.678 C 615.471 174.227 558.695 206.495 530.551 270.731 C 495.053 331.214 521.923 410.025 470.112 468.528 M 413.952 -413.952 C 459.738 -362.428 546.696 -360.66 585.298 -293.903 C 615.785 -223.071 560.324 -159.883 575.232 -92.916 C 582.166 -24.6607 639.138 25.7339 631.683 100.678 C 615.471 174.227 558.695 206.495 530.551 270.731 C 495.053 331.214 521.923 410.025 470.112 468.528 C 411.784 520.536 325.032 491.808 264.973 526.603 M 413.952 -413.952 C 459.738 -362.428 546.696 -360.66 585.298 -293.903 C 615.785 -223.071 560.324 -159.883 575.232 -92.916 C 582.166 -24.6607 639.138 25.7339 631.683 100.678 C 615.471 174.227 558.695 206.495 530.551 270.731 C 495.053 331.214 521.923 410.025 470.112 468.528 C 411.784 520.536 325.032 491.808 264.973 526.603 C 201.241 554.097 172.555 617.892 98.7331 633.89 M 413.952 -413.952 C 459.738 -362.428 546.696 -360.66 585.298 -293.903 C 615.785 -223.071 560.324 -159.883 575.232 -92.916 C 582.166 -24.6607 639.138 25.7339 631.683 100.678 C 615.471 174.227 558.695 206.495 530.551 270.731 C 495.053 331.214 521.923 410.025 470.112 468.528 C 411.784 520.536 325.032 491.808 264.973 526.603 C 201.241 554.097 172.555 617.892 98.7331 633.89 C 23.5429 641.101 -25.9228 579.208 -93.8216 572.146 M 413.952 -413.952 C 459.738 -362.428 546.696 -360.66 585.298 -293.903 C 615.785 -223.071 560.324 -159.883 575.232 -92.916 C 582.166 -24.6607 639.138 25.7339 631.683 100.678 C 615.471 174.227 558.695 206.495 530.551 270.731 C 495.053 331.214 521.923 410.025 470.112 468.528 C 411.784 520.536 325.032 491.808 264.973 526.603 C 201.241 554.097 172.555 617.892 98.7331 633.89 C 23.5429 641.101 -25.9228 579.208 -93.8216 572.146 C -160.42 557.153 -225.416 613.682 -295.984 582.934 M 413.952 -413.952 C 459.738 -362.428 546.696 -360.66 585.298 -293.903 C 615.785 -223.071 560.324 -159.883 575.232 -92.916 C 582.166 -24.6607 639.138 25.7339 631.683 100.678 C 615.471 174.227 558.695 206.495 530.551 270.731 C 495.053 331.214 521.923 410.025 470.112 468.528 C 411.784 520.536 325.032 491.808 264.973 526.603 C 201.241 554.097 172.555 617.892 98.7331 633.89 C 23.5429 641.101 -25.9228 579.208 -93.8216 572.146 C -160.42 557.153 -225.416 613.682 -295.984 582.934 C -362.449 544.104 -362.428 459.738 -413.952 413.952" style="fill:none;stroke:url('#lg');;animation:none">/&gt;</path></g>
<g transform="matrix(0.9959771373992576,-0.08960771048286177,0.08960771048286177,0.9959771373992576,0,0)" style="transform:matrix(0.995977, -0.0896077, 0.0896077, 0.995977, 0, 0);;animation:none"><path stroke-width="0.5" stroke="url(#lg)" fill="none" d="M 409.807 -409.807 C 455.134 -358.798 551.992 -369.373 591.581 -301.933 M 409.807 -409.807 C 455.134 -358.798 551.992 -369.373 591.581 -301.933 C 622.969 -230.307 575.391 -158.301 590.009 -89.5734 M 409.807 -409.807 C 455.134 -358.798 551.992 -369.373 591.581 -301.933 C 622.969 -230.307 575.391 -158.301 590.009 -89.5734 C 596.448 -19.6043 652.746 24.7672 645.31 101.318 M 409.807 -409.807 C 455.134 -358.798 551.992 -369.373 591.581 -301.933 C 622.969 -230.307 575.391 -158.301 590.009 -89.5734 C 596.448 -19.6043 652.746 24.7672 645.31 101.318 C 628.929 176.463 548.402 203.143 520.724 266.193 M 409.807 -409.807 C 455.134 -358.798 551.992 -369.373 591.581 -301.933 C 622.969 -230.307 575.391 -158.301 590.009 -89.5734 C 596.448 -19.6043 652.746 24.7672 645.31 101.318 C 628.929 176.463 548.402 203.143 520.724 266.193 C 485.827 325.552 526.322 410.933 474.374 469.948 M 409.807 -409.807 C 455.134 -358.798 551.992 -369.373 591.581 -301.933 C 622.969 -230.307 575.391 -158.301 590.009 -89.5734 C 596.448 -19.6043 652.746 24.7672 645.31 101.318 C 628.929 176.463 548.402 203.143 520.724 266.193 C 485.827 325.552 526.322 410.933 474.374 469.948 C 415.849 522.447 327.196 492.605 267.029 527.649 M 409.807 -409.807 C 455.134 -358.798 551.992 -369.373 591.581 -301.933 C 622.969 -230.307 575.391 -158.301 590.009 -89.5734 C 596.448 -19.6043 652.746 24.7672 645.31 101.318 C 628.929 176.463 548.402 203.143 520.724 266.193 C 485.827 325.552 526.322 410.933 474.374 469.948 C 415.849 522.447 327.196 492.605 267.029 527.649 C 203.159 555.377 176.644 631.179 101.232 647.566 M 409.807 -409.807 C 455.134 -358.798 551.992 -369.373 591.581 -301.933 C 622.969 -230.307 575.391 -158.301 590.009 -89.5734 C 596.448 -19.6043 652.746 24.7672 645.31 101.318 C 628.929 176.463 548.402 203.143 520.724 266.193 C 485.827 325.552 526.322 410.933 474.374 469.948 C 415.849 522.447 327.196 492.605 267.029 527.649 C 203.159 555.377 176.644 631.179 101.232 647.566 C 24.4173 654.976 -20.4863 570.142 -87.3573 563.782 M 409.807 -409.807 C 455.134 -358.798 551.992 -369.373 591.581 -301.933 C 622.969 -230.307 575.391 -158.301 590.009 -89.5734 C 596.448 -19.6043 652.746 24.7672 645.31 101.318 C 628.929 176.463 548.402 203.143 520.724 266.193 C 485.827 325.552 526.322 410.933 474.374 469.948 C 415.849 522.447 327.196 492.605 267.029 527.649 C 203.159 555.377 176.644 631.179 101.232 647.566 C 24.4173 654.976 -20.4863 570.142 -87.3573 563.782 C -153.017 549.606 -231.754 620.437 -303.072 588.896 M 409.807 -409.807 C 455.134 -358.798 551.992 -369.373 591.581 -301.933 C 622.969 -230.307 575.391 -158.301 590.009 -89.5734 C 596.448 -19.6043 652.746 24.7672 645.31 101.318 C 628.929 176.463 548.402 203.143 520.724 266.193 C 485.827 325.552 526.322 410.933 474.374 469.948 C 415.849 522.447 327.196 492.605 267.029 527.649 C 203.159 555.377 176.644 631.179 101.232 647.566 C 24.4173 654.976 -20.4863 570.142 -87.3573 563.782 C -153.017 549.606 -231.754 620.437 -303.072 588.896 C -370.188 549.192 -358.798 455.134 -409.807 409.807" style="fill:none;stroke:url('#lg');;animation:none">/&gt;</path></g>
<g transform="matrix(0.9977751318055355,-0.06666923091236596,0.06666923091236596,0.9977751318055355,0,0)" style="transform:matrix(0.997775, -0.0666692, 0.0666692, 0.997775, 0, 0);;animation:none"><path stroke-width="0.5" stroke="url(#lg)" fill="none" d="M 410.585 -410.585 C 455.998 -359.48 552.006 -368.845 591.533 -301.407 M 410.585 -410.585 C 455.998 -359.48 552.006 -368.845 591.533 -301.407 C 622.859 -229.791 564.254 -158.086 578.924 -90.6688 M 410.585 -410.585 C 455.998 -359.48 552.006 -368.845 591.533 -301.407 C 622.859 -229.791 564.254 -158.086 578.924 -90.6688 C 585.568 -21.9952 672.025 28.7738 663.985 107.562 M 410.585 -410.585 C 455.998 -359.48 552.006 -368.845 591.533 -301.407 C 622.859 -229.791 564.254 -158.086 578.924 -90.6688 C 585.568 -21.9952 672.025 28.7738 663.985 107.562 C 646.74 184.86 558.928 203.339 531.154 267.624 M 410.585 -410.585 C 455.998 -359.48 552.006 -368.845 591.533 -301.407 C 622.859 -229.791 564.254 -158.086 578.924 -90.6688 C 585.568 -21.9952 672.025 28.7738 663.985 107.562 C 646.74 184.86 558.928 203.339 531.154 267.624 C 496.016 328.2 523.075 408.002 471.494 466.655 M 410.585 -410.585 C 455.998 -359.48 552.006 -368.845 591.533 -301.407 C 622.859 -229.791 564.254 -158.086 578.924 -90.6688 C 585.568 -21.9952 672.025 28.7738 663.985 107.562 C 646.74 184.86 558.928 203.339 531.154 267.624 C 496.016 328.2 523.075 408.002 471.494 466.655 C 413.376 518.839 321.633 482.138 262.735 516.6 M 410.585 -410.585 C 455.998 -359.48 552.006 -368.845 591.533 -301.407 C 622.859 -229.791 564.254 -158.086 578.924 -90.6688 C 585.568 -21.9952 672.025 28.7738 663.985 107.562 C 646.74 184.86 558.928 203.339 531.154 267.624 C 496.016 328.2 523.075 408.002 471.494 466.655 C 413.376 518.839 321.633 482.138 262.735 516.6 C 200.194 543.9 182.634 653.957 104.504 670.89 M 410.585 -410.585 C 455.998 -359.48 552.006 -368.845 591.533 -301.407 C 622.859 -229.791 564.254 -158.086 578.924 -90.6688 C 585.568 -21.9952 672.025 28.7738 663.985 107.562 C 646.74 184.86 558.928 203.339 531.154 267.624 C 496.016 328.2 523.075 408.002 471.494 466.655 C 413.376 518.839 321.633 482.138 262.735 516.6 C 200.194 543.9 182.634 653.957 104.504 670.89 C 24.9248 678.523 -23.7759 597.157 -93.7994 590.224 M 410.585 -410.585 C 455.998 -359.48 552.006 -368.845 591.533 -301.407 C 622.859 -229.791 564.254 -158.086 578.924 -90.6688 C 585.568 -21.9952 672.025 28.7738 663.985 107.562 C 646.74 184.86 558.928 203.339 531.154 267.624 C 496.016 328.2 523.075 408.002 471.494 466.655 C 413.376 518.839 321.633 482.138 262.735 516.6 C 200.194 543.9 182.634 653.957 104.504 670.89 C 24.9248 678.523 -23.7759 597.157 -93.7994 590.224 C -162.523 575.108 -230.059 628.055 -302.284 596.661 M 410.585 -410.585 C 455.998 -359.48 552.006 -368.845 591.533 -301.407 C 622.859 -229.791 564.254 -158.086 578.924 -90.6688 C 585.568 -21.9952 672.025 28.7738 663.985 107.562 C 646.74 184.86 558.928 203.339 531.154 267.624 C 496.016 328.2 523.075 408.002 471.494 466.655 C 413.376 518.839 321.633 482.138 262.735 516.6 C 200.194 543.9 182.634 653.957 104.504 670.89 C 24.9248 678.523 -23.7759 597.157 -93.7994 590.224 C -162.523 575.108 -230.059 628.055 -302.284 596.661 C -370.319 556.996 -359.48 455.998 -410.585 410.585" style="fill:none;stroke:url('#lg');;animation:none">/&gt;</path></g>
<g transform="matrix(0.9991517814880626,-0.04117909116567196,0.04117909116567196,0.9991517814880626,0,0)" style="transform:matrix(0.999152, -0.0411791, 0.0411791, 0.999152, 0, 0);;animation:none"><path stroke-width="0.5" stroke="url(#lg)" fill="none" d="M 420.669 -420.669 C 467.197 -368.308 551.472 -373.354 591.532 -305.948 M 420.669 -420.669 C 467.197 -368.308 551.472 -373.354 591.532 -305.948 C 623.392 -234.3 565.389 -159.819 580.255 -92.2572 M 420.669 -420.669 C 467.197 -368.308 551.472 -373.354 591.532 -305.948 C 623.392 -234.3 565.389 -159.819 580.255 -92.2572 C 587.077 -23.4161 677.649 27.104 669.766 106.565 M 420.669 -420.669 C 467.197 -368.308 551.472 -373.354 591.532 -305.948 C 623.392 -234.3 565.389 -159.819 580.255 -92.2572 C 587.077 -23.4161 677.649 27.104 669.766 106.565 C 652.598 184.549 559.042 206.38 530.909 270.658 M 420.669 -420.669 C 467.197 -368.308 551.472 -373.354 591.532 -305.948 C 623.392 -234.3 565.389 -159.819 580.255 -92.2572 C 587.077 -23.4161 677.649 27.104 669.766 106.565 C 652.598 184.549 559.042 206.38 530.909 270.658 C 495.417 331.184 530.464 418.099 477.645 477.551 M 420.669 -420.669 C 467.197 -368.308 551.472 -373.354 591.532 -305.948 C 623.392 -234.3 565.389 -159.819 580.255 -92.2572 C 587.077 -23.4161 677.649 27.104 669.766 106.565 C 652.598 184.549 559.042 206.38 530.909 270.658 C 495.417 331.184 530.464 418.099 477.645 477.551 C 418.204 530.382 333.233 499.563 272.206 535.268 M 420.669 -420.669 C 467.197 -368.308 551.472 -373.354 591.532 -305.948 C 623.392 -234.3 565.389 -159.819 580.255 -92.2572 C 587.077 -23.4161 677.649 27.104 669.766 106.565 C 652.598 184.549 559.042 206.38 530.909 270.658 C 495.417 331.184 530.464 418.099 477.645 477.551 C 418.204 530.382 333.233 499.563 272.206 535.268 C 207.405 563.552 186.966 657.685 108.368 675.102 M 420.669 -420.669 C 467.197 -368.308 551.472 -373.354 591.532 -305.948 C 623.392 -234.3 565.389 -159.819 580.255 -92.2572 C 587.077 -23.4161 677.649 27.104 669.766 106.565 C 652.598 184.549 559.042 206.38 530.909 270.658 C 495.417 331.184 530.464 418.099 477.645 477.551 C 418.204 530.382 333.233 499.563 272.206 535.268 C 207.405 563.552 186.966 657.685 108.368 675.102 C 28.2668 683.159 -24.6592 585.164 -93.267 578.21 M 420.669 -420.669 C 467.197 -368.308 551.472 -373.354 591.532 -305.948 C 623.392 -234.3 565.389 -159.819 580.255 -92.2572 C 587.077 -23.4161 677.649 27.104 669.766 106.565 C 652.598 184.549 559.042 206.38 530.909 270.658 C 495.417 331.184 530.464 418.099 477.645 477.551 C 418.204 530.382 333.233 499.563 272.206 535.268 C 207.405 563.552 186.966 657.685 108.368 675.102 C 28.2668 683.159 -24.6592 585.164 -93.267 578.21 C -160.582 563.239 -234.392 635.778 -307.495 603.821 M 420.669 -420.669 C 467.197 -368.308 551.472 -373.354 591.532 -305.948 C 623.392 -234.3 565.389 -159.819 580.255 -92.2572 C 587.077 -23.4161 677.649 27.104 669.766 106.565 C 652.598 184.549 559.042 206.38 530.909 270.658 C 495.417 331.184 530.464 418.099 477.645 477.551 C 418.204 530.382 333.233 499.563 272.206 535.268 C 207.405 563.552 186.966 657.685 108.368 675.102 C 28.2668 683.159 -24.6592 585.164 -93.267 578.21 C -160.582 563.239 -234.392 635.778 -307.495 603.821 C -376.335 563.493 -368.308 467.197 -420.669 420.669" style="fill:none;stroke:url('#lg');;animation:none">/&gt;</path></g>
<g transform="matrix(0.9999028919643408,-0.013935804294974638,0.013935804294974638,0.9999028919643408,0,0)" style="transform:matrix(0.999903, -0.0139358, 0.0139358, 0.999903, 0, 0);;animation:none"><path stroke-width="0.5" stroke="url(#lg)" fill="none" d="M 430.716 -430.716 C 478.356 -377.105 557.701 -370.87 597.426 -302.749 M 430.716 -430.716 C 478.356 -377.105 557.701 -370.87 597.426 -302.749 C 628.869 -230.43 567.847 -162.784 583.045 -94.912 M 430.716 -430.716 C 478.356 -377.105 557.701 -370.87 597.426 -302.749 C 628.869 -230.43 567.847 -162.784 583.045 -94.912 C 590.159 -25.7246 664.827 29.8681 656.708 107.803 M 430.716 -430.716 C 478.356 -377.105 557.701 -370.87 597.426 -302.749 C 628.869 -230.43 567.847 -162.784 583.045 -94.912 C 590.159 -25.7246 664.827 29.8681 656.708 107.803 C 639.485 184.244 579.769 212.817 550.736 279.487 M 430.716 -430.716 C 478.356 -377.105 557.701 -370.87 597.426 -302.749 C 628.869 -230.43 567.847 -162.784 583.045 -94.912 C 590.159 -25.7246 664.827 29.8681 656.708 107.803 C 639.485 184.244 579.769 212.817 550.736 279.487 C 514.069 342.281 523.786 412.732 471.644 471.435 M 430.716 -430.716 C 478.356 -377.105 557.701 -370.87 597.426 -302.749 C 628.869 -230.43 567.847 -162.784 583.045 -94.912 C 590.159 -25.7246 664.827 29.8681 656.708 107.803 C 639.485 184.244 579.769 212.817 550.736 279.487 C 514.069 342.281 523.786 412.732 471.644 471.435 C 412.963 523.603 333.063 503.338 271.593 538.996 M 430.716 -430.716 C 478.356 -377.105 557.701 -370.87 597.426 -302.749 C 628.869 -230.43 567.847 -162.784 583.045 -94.912 C 590.159 -25.7246 664.827 29.8681 656.708 107.803 C 639.485 184.244 579.769 212.817 550.736 279.487 C 514.069 342.281 523.786 412.732 471.644 471.435 C 412.963 523.603 333.063 503.338 271.593 538.996 C 206.359 567.182 184.498 659.255 105.732 676.371 M 430.716 -430.716 C 478.356 -377.105 557.701 -370.87 597.426 -302.749 C 628.869 -230.43 567.847 -162.784 583.045 -94.912 C 590.159 -25.7246 664.827 29.8681 656.708 107.803 C 639.485 184.244 579.769 212.817 550.736 279.487 C 514.069 342.281 523.786 412.732 471.644 471.435 C 412.963 523.603 333.063 503.338 271.593 538.996 C 206.359 567.182 184.498 659.255 105.732 676.371 C 25.5 684.11 -23.0838 612.141 -94.8732 605.185 M 430.716 -430.716 C 478.356 -377.105 557.701 -370.87 597.426 -302.749 C 628.869 -230.43 567.847 -162.784 583.045 -94.912 C 590.159 -25.7246 664.827 29.8681 656.708 107.803 C 639.485 184.244 579.769 212.817 550.736 279.487 C 514.069 342.281 523.786 412.732 471.644 471.435 C 412.963 523.603 333.063 503.338 271.593 538.996 C 206.359 567.182 184.498 659.255 105.732 676.371 C 25.5 684.11 -23.0838 612.141 -94.8732 605.185 C -165.347 589.839 -232.304 624.833 -304.135 593.197 M 430.716 -430.716 C 478.356 -377.105 557.701 -370.87 597.426 -302.749 C 628.869 -230.43 567.847 -162.784 583.045 -94.912 C 590.159 -25.7246 664.827 29.8681 656.708 107.803 C 639.485 184.244 579.769 212.817 550.736 279.487 C 514.069 342.281 523.786 412.732 471.644 471.435 C 412.963 523.603 333.063 503.338 271.593 538.996 C 206.359 567.182 184.498 659.255 105.732 676.371 C 25.5 684.11 -23.0838 612.141 -94.8732 605.185 C -165.347 589.839 -232.304 624.833 -304.135 593.197 C -371.75 553.338 -377.105 478.356 -430.716 430.716" style="fill:none;stroke:url('#lg');;animation:none">/&gt;</path></g>
<g transform="matrix(0.9999028924282564,0.013935771008693683,-0.013935771008693683,0.9999028924282564,0,0)" style="transform:matrix(0.999903, 0.0139358, -0.0139358, 0.999903, 0, 0);;animation:none"><path stroke-width="0.5" stroke="url(#lg)" fill="none" d="M 427.639 -427.639 C 474.938 -374.411 568.876 -381.891 609.819 -312.379 M 427.639 -427.639 C 474.938 -374.411 568.876 -381.891 609.819 -312.379 C 642.309 -238.537 578.472 -161.12 593.4 -92.0115 M 427.639 -427.639 C 474.938 -374.411 568.876 -381.891 609.819 -312.379 C 642.309 -238.537 578.472 -161.12 593.4 -92.0115 C 600.102 -21.6269 702.263 24.4091 694.526 106.782 M 427.639 -427.639 C 474.938 -374.411 568.876 -381.891 609.819 -312.379 C 642.309 -238.537 578.472 -161.12 593.4 -92.0115 C 600.102 -21.6269 702.263 24.4091 694.526 106.782 C 677.161 187.675 563.704 206.383 535.539 271.208 M 427.639 -427.639 C 474.938 -374.411 568.876 -381.891 609.819 -312.379 C 642.309 -238.537 578.472 -161.12 593.4 -92.0115 C 600.102 -21.6269 702.263 24.4091 694.526 106.782 C 677.161 187.675 563.704 206.383 535.539 271.208 C 499.95 332.274 533.832 419.43 480.833 479.268 M 427.639 -427.639 C 474.938 -374.411 568.876 -381.891 609.819 -312.379 C 642.309 -238.537 578.472 -161.12 593.4 -92.0115 C 600.102 -21.6269 702.263 24.4091 694.526 106.782 C 677.161 187.675 563.704 206.383 535.539 271.208 C 499.95 332.274 533.832 419.43 480.833 479.268 C 421.168 532.462 333.121 502.816 271.712 538.485 M 427.639 -427.639 C 474.938 -374.411 568.876 -381.891 609.819 -312.379 C 642.309 -238.537 578.472 -161.12 593.4 -92.0115 C 600.102 -21.6269 702.263 24.4091 694.526 106.782 C 677.161 187.675 563.704 206.383 535.539 271.208 C 499.95 332.274 533.832 419.43 480.833 479.268 C 421.168 532.462 333.121 502.816 271.712 538.485 C 206.537 566.689 188.949 664.191 109.572 681.796 M 427.639 -427.639 C 474.938 -374.411 568.876 -381.891 609.819 -312.379 C 642.309 -238.537 578.472 -161.12 593.4 -92.0115 C 600.102 -21.6269 702.263 24.4091 694.526 106.782 C 677.161 187.675 563.704 206.383 535.539 271.208 C 499.95 332.274 533.832 419.43 480.833 479.268 C 421.168 532.462 333.121 502.816 271.712 538.485 C 206.537 566.689 188.949 664.191 109.572 681.796 C 28.6765 689.949 -22.436 619.3 -95.0713 612.37 M 427.639 -427.639 C 474.938 -374.411 568.876 -381.891 609.819 -312.379 C 642.309 -238.537 578.472 -161.12 593.4 -92.0115 C 600.102 -21.6269 702.263 24.4091 694.526 106.782 C 677.161 187.675 563.704 206.383 535.539 271.208 C 499.95 332.274 533.832 419.43 480.833 479.268 C 421.168 532.462 333.121 502.816 271.712 538.485 C 206.537 566.689 188.949 664.191 109.572 681.796 C 28.6765 689.949 -22.436 619.3 -95.0713 612.37 C -166.389 596.951 -233.502 641.628 -307.299 609.735 M 427.639 -427.639 C 474.938 -374.411 568.876 -381.891 609.819 -312.379 C 642.309 -238.537 578.472 -161.12 593.4 -92.0115 C 600.102 -21.6269 702.263 24.4091 694.526 106.782 C 677.161 187.675 563.704 206.383 535.539 271.208 C 499.95 332.274 533.832 419.43 480.833 479.268 C 421.168 532.462 333.121 502.816 271.712 538.485 C 206.537 566.689 188.949 664.191 109.572 681.796 C 28.6765 689.949 -22.436 619.3 -95.0713 612.37 C -166.389 596.951 -233.502 641.628 -307.299 609.735 C -376.835 569.389 -374.411 474.938 -427.639 427.639" style="fill:none;stroke:url('#lg');;animation:none">/&gt;</path></g>
<g transform="matrix(0.9991517811453546,0.041179099480991174,-0.041179099480991174,0.9991517811453546,0,0)" style="transform:matrix(0.999152, 0.0411791, -0.0411791, 0.999152, 0, 0);;animation:none"><path stroke-width="0.5" stroke="url(#lg)" fill="none" d="M 433.455 -433.455 C 481.397 -379.503 570.247 -378.019 610.725 -308.374 M 433.455 -433.455 C 481.397 -379.503 570.247 -378.019 610.725 -308.374 C 642.738 -234.453 577.54 -164.947 592.924 -95.9212 M 433.455 -433.455 C 481.397 -379.503 570.247 -378.019 610.725 -308.374 C 642.738 -234.453 577.54 -164.947 592.924 -95.9212 C 600.089 -25.5656 675.809 25.8059 668.091 105.06 M 433.455 -433.455 C 481.397 -379.503 570.247 -378.019 610.725 -308.374 C 642.738 -234.453 577.54 -164.947 592.924 -95.9212 C 600.089 -25.5656 675.809 25.8059 668.091 105.06 C 651.112 182.857 573.134 210.915 544.37 276.818 M 433.455 -433.455 C 481.397 -379.503 570.247 -378.019 610.725 -308.374 C 642.738 -234.453 577.54 -164.947 592.924 -95.9212 C 600.089 -25.5656 675.809 25.8059 668.091 105.06 C 651.112 182.857 573.134 210.915 544.37 276.818 C 508.061 338.883 539.968 425.103 486.26 485.622 M 433.455 -433.455 C 481.397 -379.503 570.247 -378.019 610.725 -308.374 C 642.738 -234.453 577.54 -164.947 592.924 -95.9212 C 600.089 -25.5656 675.809 25.8059 668.091 105.06 C 651.112 182.857 573.134 210.915 544.37 276.818 C 508.061 338.883 539.968 425.103 486.26 485.622 C 425.811 539.41 330.104 499.017 269.163 534.357 M 433.455 -433.455 C 481.397 -379.503 570.247 -378.019 610.725 -308.374 C 642.738 -234.453 577.54 -164.947 592.924 -95.9212 C 600.089 -25.5656 675.809 25.8059 668.091 105.06 C 651.112 182.857 573.134 210.915 544.37 276.818 C 508.061 338.883 539.968 425.103 486.26 485.622 C 425.811 539.41 330.104 499.017 269.163 534.357 C 204.49 562.29 186.658 654.01 108.494 671.417 M 433.455 -433.455 C 481.397 -379.503 570.247 -378.019 610.725 -308.374 C 642.738 -234.453 577.54 -164.947 592.924 -95.9212 C 600.089 -25.5656 675.809 25.8059 668.091 105.06 C 651.112 182.857 573.134 210.915 544.37 276.818 C 508.061 338.883 539.968 425.103 486.26 485.622 C 425.811 539.41 330.104 499.017 269.163 534.357 C 204.49 562.29 186.658 654.01 108.494 671.417 C 28.8252 679.515 -23.6888 610.844 -95.3216 603.825 M 433.455 -433.455 C 481.397 -379.503 570.247 -378.019 610.725 -308.374 C 642.738 -234.453 577.54 -164.947 592.924 -95.9212 C 600.089 -25.5656 675.809 25.8059 668.091 105.06 C 651.112 182.857 573.134 210.915 544.37 276.818 C 508.061 338.883 539.968 425.103 486.26 485.622 C 425.811 539.41 330.104 499.017 269.163 534.357 C 204.49 562.29 186.658 654.01 108.494 671.417 C 28.8252 679.515 -23.6888 610.844 -95.3216 603.825 C -165.633 588.436 -240.975 650.978 -315.819 618.142 M 433.455 -433.455 C 481.397 -379.503 570.247 -378.019 610.725 -308.374 C 642.738 -234.453 577.54 -164.947 592.924 -95.9212 C 600.089 -25.5656 675.809 25.8059 668.091 105.06 C 651.112 182.857 573.134 210.915 544.37 276.818 C 508.061 338.883 539.968 425.103 486.26 485.622 C 425.811 539.41 330.104 499.017 269.163 534.357 C 204.49 562.29 186.658 654.01 108.494 671.417 C 28.8252 679.515 -23.6888 610.844 -95.3216 603.825 C -165.633 588.436 -240.975 650.978 -315.819 618.142 C -386.285 576.737 -379.503 481.397 -433.455 433.455" style="fill:none;stroke:url('#lg');;animation:none">/&gt;</path></g>
<g transform="matrix(0.9977751301409954,0.06666925582395258,-0.06666925582395258,0.9977751301409954,0,0)" style="transform:matrix(0.997775, 0.0666693, -0.0666693, 0.997775, 0, 0);;animation:none"><path stroke-width="0.5" stroke="url(#lg)" fill="none" d="M 433.124 -433.124 C 481.03 -379.213 567.846 -381.22 608.718 -311.834 M 433.124 -433.124 C 481.03 -379.213 567.846 -381.22 608.718 -311.834 C 641.151 -238.125 602.515 -172.191 618.577 -100.179 M 433.124 -433.124 C 481.03 -379.213 567.846 -381.22 608.718 -311.834 C 641.151 -238.125 602.515 -172.191 618.577 -100.179 C 626.064 -26.7788 688.71 25.5596 680.932 106.332 M 433.124 -433.124 C 481.03 -379.213 567.846 -381.22 608.718 -311.834 C 641.151 -238.125 602.515 -172.191 618.577 -100.179 C 626.064 -26.7788 688.71 25.5596 680.932 106.332 C 663.714 185.629 577.066 214.678 547.833 281.017 M 433.124 -433.124 C 481.03 -379.213 567.846 -381.22 608.718 -311.834 C 641.151 -238.125 602.515 -172.191 618.577 -100.179 C 626.064 -26.7788 688.71 25.5596 680.932 106.332 C 663.714 185.629 577.066 214.678 547.833 281.017 C 511.006 343.46 553.991 435.353 498.98 497.45 M 433.124 -433.124 C 481.03 -379.213 567.846 -381.22 608.718 -311.834 C 641.151 -238.125 602.515 -172.191 618.577 -100.179 C 626.064 -26.7788 688.71 25.5596 680.932 106.332 C 663.714 185.629 577.066 214.678 547.833 281.017 C 511.006 343.46 553.991 435.353 498.98 497.45 C 437.053 552.651 341.481 510.522 279.108 547.12 M 433.124 -433.124 C 481.03 -379.213 567.846 -381.22 608.718 -311.834 C 641.151 -238.125 602.515 -172.191 618.577 -100.179 C 626.064 -26.7788 688.71 25.5596 680.932 106.332 C 663.714 185.629 577.066 214.678 547.833 281.017 C 511.006 343.46 553.991 435.353 498.98 497.45 C 437.053 552.651 341.481 510.522 279.108 547.12 C 212.867 576.133 190.409 672.954 109.992 690.67 M 433.124 -433.124 C 481.03 -379.213 567.846 -381.22 608.718 -311.834 C 641.151 -238.125 602.515 -172.191 618.577 -100.179 C 626.064 -26.7788 688.71 25.5596 680.932 106.332 C 663.714 185.629 577.066 214.678 547.833 281.017 C 511.006 343.46 553.991 435.353 498.98 497.45 C 437.053 552.651 341.481 510.522 279.108 547.12 C 212.867 576.133 190.409 672.954 109.992 690.67 C 28.0505 698.81 -28.118 636.632 -102.751 628.914 M 433.124 -433.124 C 481.03 -379.213 567.846 -381.22 608.718 -311.834 C 641.151 -238.125 602.515 -172.191 618.577 -100.179 C 626.064 -26.7788 688.71 25.5596 680.932 106.332 C 663.714 185.629 577.066 214.678 547.833 281.017 C 511.006 343.46 553.991 435.353 498.98 497.45 C 437.053 552.651 341.481 510.522 279.108 547.12 C 212.867 576.133 190.409 672.954 109.992 690.67 C 28.0505 698.81 -28.118 636.632 -102.751 628.914 C -175.96 612.478 -241.145 652.64 -316.183 619.773 M 433.124 -433.124 C 481.03 -379.213 567.846 -381.22 608.718 -311.834 C 641.151 -238.125 602.515 -172.191 618.577 -100.179 C 626.064 -26.7788 688.71 25.5596 680.932 106.332 C 663.714 185.629 577.066 214.678 547.833 281.017 C 511.006 343.46 553.991 435.353 498.98 497.45 C 437.053 552.651 341.481 510.522 279.108 547.12 C 212.867 576.133 190.409 672.954 109.992 690.67 C 28.0505 698.81 -28.118 636.632 -102.751 628.914 C -175.96 612.478 -241.145 652.64 -316.183 619.773 C -386.838 578.313 -379.213 481.03 -433.124 433.124" style="fill:none;stroke:url('#lg');;animation:none">/&gt;</path></g>
<g transform="matrix(0.9959771381450069,0.08960770219396313,-0.08960770219396313,0.9959771381450069,0,0)" style="transform:matrix(0.995977, 0.0896077, -0.0896077, 0.995977, 0, 0);;animation:none"><path stroke-width="0.5" stroke="url(#lg)" fill="none" d="M 447.894 -447.894 C 497.434 -392.145 587.722 -391.996 629.722 -320.2 M 447.894 -447.894 C 497.434 -392.145 587.722 -391.996 629.722 -320.2 C 662.993 -243.964 600.36 -169.509 616.122 -97.7695 M 447.894 -447.894 C 497.434 -392.145 587.722 -391.996 629.722 -320.2 C 662.993 -243.964 600.36 -169.509 616.122 -97.7695 C 623.343 -24.6744 704.698 30.6493 696.211 113.265 M 447.894 -447.894 C 497.434 -392.145 587.722 -391.996 629.722 -320.2 C 662.993 -243.964 600.36 -169.509 616.122 -97.7695 C 623.343 -24.6744 704.698 30.6493 696.211 113.265 C 678.073 194.311 589.9 215.549 560.476 283.39 M 447.894 -447.894 C 497.434 -392.145 587.722 -391.996 629.722 -320.2 C 662.993 -243.964 600.36 -169.509 616.122 -97.7695 C 623.343 -24.6744 704.698 30.6493 696.211 113.265 C 678.073 194.311 589.9 215.549 560.476 283.39 C 523.282 347.303 557.64 438.541 502.23 501.045 M 447.894 -447.894 C 497.434 -392.145 587.722 -391.996 629.722 -320.2 C 662.993 -243.964 600.36 -169.509 616.122 -97.7695 C 623.343 -24.6744 704.698 30.6493 696.211 113.265 C 678.073 194.311 589.9 215.549 560.476 283.39 C 523.282 347.303 557.64 438.541 502.23 501.045 C 439.857 556.603 347.2 517.898 283.921 555.117 M 447.894 -447.894 C 497.434 -392.145 587.722 -391.996 629.722 -320.2 C 662.993 -243.964 600.36 -169.509 616.122 -97.7695 C 623.343 -24.6744 704.698 30.6493 696.211 113.265 C 678.073 194.311 589.9 215.549 560.476 283.39 C 523.282 347.303 557.64 438.541 502.23 501.045 C 439.857 556.603 347.2 517.898 283.921 555.117 C 216.706 584.641 191.018 670.567 110.877 688.37 M 447.894 -447.894 C 497.434 -392.145 587.722 -391.996 629.722 -320.2 C 662.993 -243.964 600.36 -169.509 616.122 -97.7695 C 623.343 -24.6744 704.698 30.6493 696.211 113.265 C 678.073 194.311 589.9 215.549 560.476 283.39 C 523.282 347.303 557.64 438.541 502.23 501.045 C 439.857 556.603 347.2 517.898 283.921 555.117 C 216.706 584.641 191.018 670.567 110.877 688.37 C 29.1996 696.631 -22.469 635.407 -96.9974 628.362 M 447.894 -447.894 C 497.434 -392.145 587.722 -391.996 629.722 -320.2 C 662.993 -243.964 600.36 -169.509 616.122 -97.7695 C 623.343 -24.6744 704.698 30.6493 696.211 113.265 C 678.073 194.311 589.9 215.549 560.476 283.39 C 523.282 347.303 557.64 438.541 502.23 501.045 C 439.857 556.603 347.2 517.898 283.921 555.117 C 216.706 584.641 191.018 670.567 110.877 688.37 C 29.1996 696.631 -22.469 635.407 -96.9974 628.362 C -170.181 612.606 -247.358 673.152 -324.764 639.412 M 447.894 -447.894 C 497.434 -392.145 587.722 -391.996 629.722 -320.2 C 662.993 -243.964 600.36 -169.509 616.122 -97.7695 C 623.343 -24.6744 704.698 30.6493 696.211 113.265 C 678.073 194.311 589.9 215.549 560.476 283.39 C 523.282 347.303 557.64 438.541 502.23 501.045 C 439.857 556.603 347.2 517.898 283.921 555.117 C 216.706 584.641 191.018 670.567 110.877 688.37 C 29.1996 696.631 -22.469 635.407 -96.9974 628.362 C -170.181 612.606 -247.358 673.152 -324.764 639.412 C -397.668 596.808 -392.145 497.434 -447.894 447.894" style="fill:none;stroke:url('#lg');;animation:none">/&gt;</path></g>
<g transform="matrix(0.9939788616376863,0.1095719974147101,-0.1095719974147101,0.9939788616376863,0,0)" style="transform:matrix(0.993979, 0.109572, -0.109572, 0.993979, 0, 0);;animation:none"><path stroke-width="0.5" stroke="url(#lg)" fill="none" d="M 452.313 -452.313 C 502.341 -396.014 592.22 -397.527 634.84 -325.163 M 452.313 -452.313 C 502.341 -396.014 592.22 -397.527 634.84 -325.163 C 668.658 -248.292 612.015 -175.528 628.404 -102.376 M 452.313 -452.313 C 502.341 -396.014 592.22 -397.527 634.84 -325.163 C 668.658 -248.292 612.015 -175.528 628.404 -102.376 C 636.081 -27.8057 703.375 24.0648 695.671 106.571 M 452.313 -452.313 C 502.341 -396.014 592.22 -397.527 634.84 -325.163 C 668.658 -248.292 612.015 -175.528 628.404 -102.376 C 636.081 -27.8057 703.375 24.0648 695.671 106.571 C 678.323 187.6 584.453 217.123 554.882 284.313 M 452.313 -452.313 C 502.341 -396.014 592.22 -397.527 634.84 -325.163 C 668.658 -248.292 612.015 -175.528 628.404 -102.376 C 636.081 -27.8057 703.375 24.0648 695.671 106.571 C 678.323 187.6 584.453 217.123 554.882 284.313 C 517.618 347.561 559.199 439.402 503.677 502.083 M 452.313 -452.313 C 502.341 -396.014 592.22 -397.527 634.84 -325.163 C 668.658 -248.292 612.015 -175.528 628.404 -102.376 C 636.081 -27.8057 703.375 24.0648 695.671 106.571 C 678.323 187.6 584.453 217.123 554.882 284.313 C 517.618 347.561 559.199 439.402 503.677 502.083 C 441.172 557.803 352.396 520.167 288.814 557.982 M 452.313 -452.313 C 502.341 -396.014 592.22 -397.527 634.84 -325.163 C 668.658 -248.292 612.015 -175.528 628.404 -102.376 C 636.081 -27.8057 703.375 24.0648 695.671 106.571 C 678.323 187.6 584.453 217.123 554.882 284.313 C 517.618 347.561 559.199 439.402 503.677 502.083 C 441.172 557.803 352.396 520.167 288.814 557.982 C 221.229 588.06 195.295 698.065 111.893 716.181 M 452.313 -452.313 C 502.341 -396.014 592.22 -397.527 634.84 -325.163 C 668.658 -248.292 612.015 -175.528 628.404 -102.376 C 636.081 -27.8057 703.375 24.0648 695.671 106.571 C 678.323 187.6 584.453 217.123 554.882 284.313 C 517.618 347.561 559.199 439.402 503.677 502.083 C 441.172 557.803 352.396 520.167 288.814 557.982 C 221.229 588.06 195.295 698.065 111.893 716.181 C 26.9393 724.368 -22.1646 637.135 -96.8982 630.114 M 452.313 -452.313 C 502.341 -396.014 592.22 -397.527 634.84 -325.163 C 668.658 -248.292 612.015 -175.528 628.404 -102.376 C 636.081 -27.8057 703.375 24.0648 695.671 106.571 C 678.323 187.6 584.453 217.123 554.882 284.313 C 517.618 347.561 559.199 439.402 503.677 502.083 C 441.172 557.803 352.396 520.167 288.814 557.982 C 221.229 588.06 195.295 698.065 111.893 716.181 C 26.9393 724.368 -22.1646 637.135 -96.8982 630.114 C -170.289 614.357 -239.546 649.358 -314.21 616.702 M 452.313 -452.313 C 502.341 -396.014 592.22 -397.527 634.84 -325.163 C 668.658 -248.292 612.015 -175.528 628.404 -102.376 C 636.081 -27.8057 703.375 24.0648 695.671 106.571 C 678.323 187.6 584.453 217.123 554.882 284.313 C 517.618 347.561 559.199 439.402 503.677 502.083 C 441.172 557.803 352.396 520.167 288.814 557.982 C 221.229 588.06 195.295 698.065 111.893 716.181 C 26.9393 724.368 -22.1646 637.135 -96.8982 630.114 C -170.289 614.357 -239.546 649.358 -314.21 616.702 C -384.517 575.496 -396.014 502.341 -452.313 452.313" style="fill:none;stroke:url('#lg');;animation:none">/&gt;</path></g>
<g transform="matrix(0.9919729053644956,0.12645060309354628,-0.12645060309354628,0.9919729053644956,0,0)" style="transform:matrix(0.991973, 0.126451, -0.126451, 0.991973, 0, 0);;animation:none"><path stroke-width="0.5" stroke="url(#lg)" fill="none" d="M 459.325 -459.325 C 510.129 -402.153 579.498 -392.476 621.612 -321.642 M 459.325 -459.325 C 510.129 -402.153 579.498 -392.476 621.612 -321.642 C 655.108 -246.35 618.447 -175.761 634.818 -101.852 M 459.325 -459.325 C 510.129 -402.153 579.498 -392.476 621.612 -321.642 C 655.108 -246.35 618.447 -175.761 634.818 -101.852 C 642.39 -26.5309 701.943 24.7814 694.165 107.114 M 459.325 -459.325 C 510.129 -402.153 579.498 -392.476 621.612 -321.642 C 655.108 -246.35 618.447 -175.761 634.818 -101.852 C 642.39 -26.5309 701.943 24.7814 694.165 107.114 C 676.763 187.962 589.852 215.443 560.441 283.28 M 459.325 -459.325 C 510.129 -402.153 579.498 -392.476 621.612 -321.642 C 655.108 -246.35 618.447 -175.761 634.818 -101.852 C 642.39 -26.5309 701.943 24.7814 694.165 107.114 C 676.763 187.962 589.852 215.443 560.441 283.28 C 523.261 347.189 546.062 433.747 491.296 494.923 M 459.325 -459.325 C 510.129 -402.153 579.498 -392.476 621.612 -321.642 C 655.108 -246.35 618.447 -175.761 634.818 -101.852 C 642.39 -26.5309 701.943 24.7814 694.165 107.114 C 676.763 187.962 589.852 215.443 560.441 283.28 C 523.261 347.189 546.062 433.747 491.296 494.923 C 429.718 549.238 355.042 533.37 289.89 571.403 M 459.325 -459.325 C 510.129 -402.153 579.498 -392.476 621.612 -321.642 C 655.108 -246.35 618.447 -175.761 634.818 -101.852 C 642.39 -26.5309 701.943 24.7814 694.165 107.114 C 676.763 187.962 589.852 215.443 560.441 283.28 C 523.261 347.189 546.062 433.747 491.296 494.923 C 429.718 549.238 355.042 533.37 289.89 571.403 C 220.72 601.515 195.041 697.601 111.695 715.69 M 459.325 -459.325 C 510.129 -402.153 579.498 -392.476 621.612 -321.642 C 655.108 -246.35 618.447 -175.761 634.818 -101.852 C 642.39 -26.5309 701.943 24.7814 694.165 107.114 C 676.763 187.962 589.852 215.443 560.441 283.28 C 523.261 347.189 546.062 433.747 491.296 494.923 C 429.718 549.238 355.042 533.37 289.89 571.403 C 220.72 601.515 195.041 697.601 111.695 715.69 C 26.8005 723.857 -21.0208 625.547 -94.4003 618.74 M 459.325 -459.325 C 510.129 -402.153 579.498 -392.476 621.612 -321.642 C 655.108 -246.35 618.447 -175.761 634.818 -101.852 C 642.39 -26.5309 701.943 24.7814 694.165 107.114 C 676.763 187.962 589.852 215.443 560.441 283.28 C 523.261 347.189 546.062 433.747 491.296 494.923 C 429.718 549.238 355.042 533.37 289.89 571.403 C 220.72 601.515 195.041 697.601 111.695 715.69 C 26.8005 723.857 -21.0208 625.547 -94.4003 618.74 C -166.471 603.356 -246.752 676.745 -324.584 643.052 M 459.325 -459.325 C 510.129 -402.153 579.498 -392.476 621.612 -321.642 C 655.108 -246.35 618.447 -175.761 634.818 -101.852 C 642.39 -26.5309 701.943 24.7814 694.165 107.114 C 676.763 187.962 589.852 215.443 560.441 283.28 C 523.261 347.189 546.062 433.747 491.296 494.923 C 429.718 549.238 355.042 533.37 289.89 571.403 C 220.72 601.515 195.041 697.601 111.695 715.69 C 26.8005 723.857 -21.0208 625.547 -94.4003 618.74 C -166.471 603.356 -246.752 676.745 -324.584 643.052 C -397.917 600.444 -402.153 510.129 -459.325 459.325" style="fill:none;stroke:url('#lg');;animation:none">/&gt;</path></g>
<g transform="matrix(0.9901037932570892,0.14033701784605215,-0.14033701784605215,0.9901037932570892,0,0)" style="transform:matrix(0.990104, 0.140337, -0.140337, 0.990104, 0, 0);;animation:none"><path stroke-width="0.5" stroke="url(#lg)" fill="none" d="M 460.743 -460.743 C 511.704 -403.395 598.609 -404.551 642.009 -331.388 M 460.743 -460.743 C 511.704 -403.395 598.609 -404.551 642.009 -331.388 C 676.51 -253.631 626.325 -177.287 642.822 -102.442 M 460.743 -460.743 C 511.704 -403.395 598.609 -404.551 642.009 -331.388 C 676.51 -253.631 626.325 -177.287 642.822 -102.442 C 650.407 -26.176 722.902 31.0069 714.247 115.76 M 460.743 -460.743 C 511.704 -403.395 598.609 -404.551 642.009 -331.388 C 676.51 -253.631 626.325 -177.287 642.822 -102.442 C 650.407 -26.176 722.902 31.0069 714.247 115.76 C 695.69 198.908 619.025 231.432 587.532 302.586 M 460.743 -460.743 C 511.704 -403.395 598.609 -404.551 642.009 -331.388 C 676.51 -253.631 626.325 -177.287 642.822 -102.442 C 650.407 -26.176 722.902 31.0069 714.247 115.76 C 695.69 198.908 619.025 231.432 587.532 302.586 C 547.894 369.546 565.196 440.669 509.483 504.046 M 460.743 -460.743 C 511.704 -403.395 598.609 -404.551 642.009 -331.388 C 676.51 -253.631 626.325 -177.287 642.822 -102.442 C 650.407 -26.176 722.902 31.0069 714.247 115.76 C 695.69 198.908 619.025 231.432 587.532 302.586 C 547.894 369.546 565.196 440.669 509.483 504.046 C 446.707 560.436 361.632 541.193 295.515 579.947 M 460.743 -460.743 C 511.704 -403.395 598.609 -404.551 642.009 -331.388 C 676.51 -253.631 626.325 -177.287 642.822 -102.442 C 650.407 -26.176 722.902 31.0069 714.247 115.76 C 695.69 198.908 619.025 231.432 587.532 302.586 C 547.894 369.546 565.196 440.669 509.483 504.046 C 446.707 560.436 361.632 541.193 295.515 579.947 C 225.301 610.661 191.217 692.774 108.464 710.447 M 460.743 -460.743 C 511.704 -403.395 598.609 -404.551 642.009 -331.388 C 676.51 -253.631 626.325 -177.287 642.822 -102.442 C 650.407 -26.176 722.902 31.0069 714.247 115.76 C 695.69 198.908 619.025 231.432 587.532 302.586 C 547.894 369.546 565.196 440.669 509.483 504.046 C 446.707 560.436 361.632 541.193 295.515 579.947 C 225.301 610.661 191.217 692.774 108.464 710.447 C 24.2085 718.271 -27.7615 650.155 -103.987 642.385 M 460.743 -460.743 C 511.704 -403.395 598.609 -404.551 642.009 -331.388 C 676.51 -253.631 626.325 -177.287 642.822 -102.442 C 650.407 -26.176 722.902 31.0069 714.247 115.76 C 695.69 198.908 619.025 231.432 587.532 302.586 C 547.894 369.546 565.196 440.669 509.483 504.046 C 446.707 560.436 361.632 541.193 295.515 579.947 C 225.301 610.661 191.217 692.774 108.464 710.447 C 24.2085 718.271 -27.7615 650.155 -103.987 642.385 C -178.77 625.71 -245.528 672.518 -322.872 638.998 M 460.743 -460.743 C 511.704 -403.395 598.609 -404.551 642.009 -331.388 C 676.51 -253.631 626.325 -177.287 642.822 -102.442 C 650.407 -26.176 722.902 31.0069 714.247 115.76 C 695.69 198.908 619.025 231.432 587.532 302.586 C 547.894 369.546 565.196 440.669 509.483 504.046 C 446.707 560.436 361.632 541.193 295.515 579.947 C 225.301 610.661 191.217 692.774 108.464 710.447 C 24.2085 718.271 -27.7615 650.155 -103.987 642.385 C -178.77 625.71 -245.528 672.518 -322.872 638.998 C -395.74 596.619 -403.395 511.704 -460.743 460.743" style="fill:none;stroke:url('#lg');;animation:none">/&gt;</path></g>
<g></g></g><!-- [ldio] generated by https://loading.io --></svg>